<svg xmlns="http://www.w3.org/2000/svg" viewBox="0 0 97.41 97.41"><defs><style>.cls-1{isolation:isolate;}.cls-2{fill:#5bbac7;}.cls-3{fill:#f1582b;}.cls-4{fill:#b13d1f;}.cls-5{fill:#666;}.cls-6{fill:#999;}.cls-7{fill:#3d3d3d;}.cls-8{fill:#b3b3b3;}.cls-9{fill:#b33e20;}.cls-10{fill:#e34f26;}.cls-11{fill:#81c6d6;}.cls-12{fill:#535977;}.cls-13,.cls-16,.cls-29{fill:#fff;}.cls-13{opacity:0.41;}.cls-14{fill:#832e17;}.cls-15{fill:#333;}.cls-17{fill:#4d4d4d;}.cls-18{fill:#ccc;}.cls-19{fill:#67576a;}.cls-20{fill:#e45027;}.cls-21{fill:#ca4624;}.cls-22{fill:#983519;}.cls-23{fill:#1d9aa8;}.cls-24{fill:#f2f2f2;}.cls-25{fill:#f6a61e;}.cls-26{fill:#80bc22;}.cls-27{fill:#712714;}.cls-28{fill:#f4e619;}.cls-29{opacity:0.77;}.cls-30{fill:#2b957c;}.cls-31{fill:#d1d1d1;mix-blend-mode:multiply;}</style></defs><title>balans-01</title><g class="cls-1"><g id="Layer_1" data-name="Layer 1"><circle class="cls-2" cx="66.71" cy="66.71" r="48.71" transform="translate(-31.69 98.06) rotate(-76.55)"/><rect class="cls-3" x="20.99" y="35.79" width="30.06" height="43.72"/><polygon class="cls-4" points="67.39 29.19 67.39 79.5 51.06 79.5 51.06 35.79 63.59 30.72 67.39 29.19"/><path class="cls-5" d="M98.12,57.06A27.12,27.12,0,0,1,94,71.87a14.16,14.16,0,0,1-.84,1.19,18.76,18.76,0,0,1-1.66,1.86A13.61,13.61,0,0,1,90,76.22a10.47,10.47,0,0,1-1.12.71,9.29,9.29,0,0,1-.89.45,10.54,10.54,0,0,1-2.56.79,9.9,9.9,0,0,1-1.64.14,2.06,2.06,0,0,1-.35,0,2.09,2.09,0,0,0,1.37-2v-3.9a3.52,3.52,0,0,0,.62-.11A5.1,5.1,0,0,0,87,71.58a4.8,4.8,0,0,0,.53-.39,2.47,2.47,0,0,0,.27-.21c.13-.12.26-.23.39-.36s.39-.39.59-.61.19-.22.28-.34a3.24,3.24,0,0,0,.27-.35c.1-.13.19-.25.28-.39a4.38,4.38,0,0,0,.28-.42l.27-.42c.09-.15.18-.3.26-.46a19.15,19.15,0,0,0,1.5-3.57c.06-.22.12-.45.19-.68a5.81,5.81,0,0,0,.15-.63q.12-.47.21-.93a7.39,7.39,0,0,0,.14-.82l.12-.83c0-.35.08-.71.11-1.06s0-.73.07-1.1,0-.63,0-.95c0-8.57-4.24-15-8.17-15.36V37.91A2.09,2.09,0,0,0,83,35.85c.23,0,.47,0,.71,0C91.68,35.82,98.12,45.32,98.12,57.06Z" transform="translate(-18 -18)"/><path class="cls-5" d="M84.12,41.7a1.25,1.25,0,0,0-.19,0l-.11,0,0,0Z" transform="translate(-18 -18)"/><path class="cls-5" d="M84.12,72.42h-.33l0,0h.11A1.25,1.25,0,0,0,84.12,72.42Z" transform="translate(-18 -18)"/><path class="cls-6" d="M84.77,37.91V41.7h-.48a1,1,0,0,0-.17,0h-.19V37.91a1.26,1.26,0,0,0-1.26-1.25H74.15a1.26,1.26,0,0,0-1.25,1.25V41.7h-.84V37.91a2.08,2.08,0,0,1,2-2.08h8.66a2.09,2.09,0,0,1,2.1,2.09Z" transform="translate(-18 -18)"/><path class="cls-6" d="M84.77,72.42v3.91a2.09,2.09,0,0,1-1.38,2,1.92,1.92,0,0,1-.72.13H74.15a1.9,1.9,0,0,1-.71-.13h0a2.09,2.09,0,0,1-1.37-2V72.42h.84v3.91a1.26,1.26,0,0,0,1.25,1.25h8.52a1.25,1.25,0,0,0,1.26-1.25V72.42h.19a.47.47,0,0,0,.17,0h.16Z" transform="translate(-18 -18)"/><path class="cls-7" d="M93,57.06c0,8.57-4.25,15-8.18,15.36h-.65a1.25,1.25,0,0,1-.19,0h-.11l0,0h.14v3.91a1.25,1.25,0,0,1-1.26,1.25H74.15a1.26,1.26,0,0,1-1.25-1.25V72.42h1.27l.39,0,.32,0c1.6-.13,3.24-1.27,4.63-3.14a18.11,18.11,0,0,0,2.92-6.63q.1-.42.18-.84a24.09,24.09,0,0,0,.45-4.75,25.19,25.19,0,0,0-.42-4.62c-.06-.29-.11-.57-.18-.84a18.28,18.28,0,0,0-2.95-6.75c-1.39-1.88-3-3-4.63-3.15h-2V37.91a1.26,1.26,0,0,1,1.25-1.25h8.52a1.26,1.26,0,0,1,1.26,1.25V41.7h-.14l0,0,.11,0a1.25,1.25,0,0,1,.19,0h.65C88.7,42,93,48.49,93,57.06Z" transform="translate(-18 -18)"/><path class="cls-8" d="M82.77,57.73a1.67,1.67,0,1,1-1.62-2.1A1.91,1.91,0,0,1,82.77,57.73Z" transform="translate(-18 -18)"/><polygon class="cls-9" points="67.38 29.19 51.05 35.79 20.99 35.79 37.33 29.19 67.38 29.19"/><path class="cls-5" d="M81.15,59.83H75.67a2.17,2.17,0,0,1,0-4.2h5.48a2.17,2.17,0,0,0,0,4.2Z" transform="translate(-18 -18)"/><rect class="cls-10" x="29.29" y="17.39" width="20.16" height="12.99"/><rect class="cls-11" x="31.03" y="19.09" width="16.67" height="9.59"/><rect class="cls-12" x="32.26" y="20.35" width="7.75" height="1.88"/><rect class="cls-12" x="32.26" y="23.14" width="6.89" height="0.91"/><rect class="cls-12" x="40.17" y="23.14" width="4.24" height="0.91"/><rect class="cls-12" x="32.26" y="24.81" width="9.38" height="0.91"/><rect class="cls-12" x="32.26" y="26.51" width="7.75" height="0.91"/><polygon class="cls-13" points="35.27 19.09 33.92 28.68 31.04 28.68 31.04 19.09 35.27 19.09"/><rect class="cls-14" x="35.52" y="30.38" width="7.69" height="2.15"/><path class="cls-5" d="M80,44.06a6.63,6.63,0,0,0-3.47,1,9.74,9.74,0,0,0-2.84,2.72,17,17,0,0,0-2.83,9.77,17,17,0,0,0,2.83,9.77,9.65,9.65,0,0,0,2.84,2.73,6.63,6.63,0,0,0,3.47,1c5,0,9.13-6,9.13-13.51S85,44.06,80,44.06Zm.44,23.28a2.85,2.85,0,0,1-.94-.18A5.67,5.67,0,0,1,77,64.87a14.72,14.72,0,0,1,0-14.61A5.67,5.67,0,0,1,79.49,48a2.61,2.61,0,0,1,.94-.18c2.55,0,5.4,4.18,5.4,9.77S83,67.34,80.43,67.34Z" transform="translate(-18 -18)"/><path class="cls-15" d="M85.83,57.56c0,5.6-2.85,9.78-5.4,9.78a2.85,2.85,0,0,1-.94-.18A5.67,5.67,0,0,1,77,64.87a13.64,13.64,0,0,0,1.94-7.31A13.63,13.63,0,0,0,77,50.26,5.67,5.67,0,0,1,79.49,48a2.61,2.61,0,0,1,.94-.18C83,47.79,85.83,52,85.83,57.56Z" transform="translate(-18 -18)"/><path class="cls-15" d="M79.5,71a3.87,3.87,0,0,0,.48,0H73.06a6.57,6.57,0,0,1-3.23-.87,8.45,8.45,0,0,1-1.14-.77,10.16,10.16,0,0,1-1.91-2.05c-.18-.26-.36-.52-.53-.81A14.62,14.62,0,0,1,65,63.87c-.09-.26-.18-.53-.26-.8a18,18,0,0,1-.55-2.41c0-.25-.08-.51-.1-.77a17.78,17.78,0,0,1-.14-2.33v-.37c0-.26,0-.52,0-.77a17.14,17.14,0,0,1,.22-2.05,6.36,6.36,0,0,1,.14-.76,15.18,15.18,0,0,1,.62-2.23,5.59,5.59,0,0,1,.26-.72,14.87,14.87,0,0,1,1.22-2.39c.14-.21.28-.42.44-.62a9.75,9.75,0,0,1,2.62-2.52,6,6,0,0,1,.71-.38,6.39,6.39,0,0,1,2.63-.69H80a3.85,3.85,0,0,0-.48,0,5.22,5.22,0,0,0-.57.07,3.1,3.1,0,0,0-.51.11,3.18,3.18,0,0,0-.38.11,6.71,6.71,0,0,0-1.52.7l-.22.14a8.28,8.28,0,0,0-.91.68,10.5,10.5,0,0,0-1.71,1.9h0q-.27.38-.51.78a14.07,14.07,0,0,0-1,1.9c-.11.26-.21.52-.31.79a17.11,17.11,0,0,0-.63,2.24c-.06.27-.12.54-.16.82a18.26,18.26,0,0,0-.23,2.13c0,.26,0,.52,0,.79v.32a19.36,19.36,0,0,0,.1,2c0,.26.06.51.09.77a18.86,18.86,0,0,0,.45,2.19c.07.25.14.51.22.75a15.14,15.14,0,0,0,1,2.36c.12.24.24.47.37.69s.41.66.63,1a9.8,9.8,0,0,0,.68.88q.27.3.54.57a8.76,8.76,0,0,0,1.62,1.28,6.67,6.67,0,0,0,1.52.69,2,2,0,0,0,.38.11,4.7,4.7,0,0,0,.51.12A3.55,3.55,0,0,0,79.5,71Z" transform="translate(-18 -18)"/><path class="cls-16" d="M71.41,46.3c-.14.15-.27.3-.4.46v0C71.14,46.58,71.27,46.44,71.41,46.3Z" transform="translate(-18 -18)"/><path class="cls-17" d="M76.63,71.07a6.64,6.64,0,0,1-2.8-.93h0a2.58,2.58,0,0,1,1.07-1.36,7.37,7.37,0,0,1-.54-.57,3.26,3.26,0,0,0-1.21,1.48,9.21,9.21,0,0,1-1.46-1.35,2.92,2.92,0,0,1,1.36-2,7.55,7.55,0,0,1-.37-.69,4,4,0,0,0-1.62,1.9,13.18,13.18,0,0,1-1.36-2.29,5.2,5.2,0,0,1,2-2c-.08-.24-.15-.5-.22-.75a5.94,5.94,0,0,0-2.17,1.84,18.08,18.08,0,0,1-.67-2.08,3.5,3.5,0,0,1,2.39-2c0-.25-.07-.51-.09-.77a4.94,4.94,0,0,0-2.55,1.58A18.56,18.56,0,0,1,68.12,59h0a4.11,4.11,0,0,1,2.73-1.79c0-.27,0-.53,0-.79a5.67,5.67,0,0,0-2.81,1.36v-.25q0-.62,0-1.23h0a5.12,5.12,0,0,1,3-2c0-.27.1-.55.16-.82a6.88,6.88,0,0,0-3,1.48,19.05,19.05,0,0,1,.39-2h0a5.33,5.33,0,0,1,3.28-1.66c.09-.27.2-.53.31-.79A6.62,6.62,0,0,0,69,51.54a15.26,15.26,0,0,1,.68-1.69,6,6,0,0,1,3.47-1.28c.16-.27.33-.52.5-.78h0a8.22,8.22,0,0,0-3.22.67,12.56,12.56,0,0,1,1.15-1.58h0a6.62,6.62,0,0,1,3.79-1,8.28,8.28,0,0,1,.91-.68,8.36,8.36,0,0,0-3,.13,6.78,6.78,0,0,1,3.35-1.28H73.76a7.57,7.57,0,0,0-2.71,1.86,2.69,2.69,0,0,0-.87-1.17,5.38,5.38,0,0,0-.7.39,2.19,2.19,0,0,1,.89,1.51,11.21,11.21,0,0,0-1.5,2.22,4.92,4.92,0,0,0-1.7-1.63c-.16.2-.37.47-.51.69a4.48,4.48,0,0,1,1.77,1.83,24.87,24.87,0,0,0-.89,2.38,4.47,4.47,0,0,0-2.22-1.78c-.09.24-.23.53-.31.77A4.47,4.47,0,0,1,67.24,53s0,0,.06.07a19.55,19.55,0,0,0-.36,2.1,6.53,6.53,0,0,0-2.63-1.58c0,.25-.1.51-.13.76a4.79,4.79,0,0,1,2.62,2l0,0q0,.6,0,1.2a.91.91,0,0,0,0,.17A5.78,5.78,0,0,0,64,56.42c0,.25,0,.51,0,.78A4.21,4.21,0,0,1,66.85,59s0,0,0,0a17.5,17.5,0,0,0,.21,1.79,5.8,5.8,0,0,0-3-.93c0,.26.07.52.11.77a4.1,4.1,0,0,1,3.18,1.53h0a15.91,15.91,0,0,0,.58,1.92,7.71,7.71,0,0,0-3.21-1.05c.08.28.17.54.26.8a7.21,7.21,0,0,1,3.52,1.63,13.11,13.11,0,0,0,.94,1.7,10.8,10.8,0,0,0-3.19-.63c.18.29.36.55.54.81A10,10,0,0,1,70.4,68.5a10.21,10.21,0,0,0,1,1,19.9,19.9,0,0,0-2.68-.08,8.54,8.54,0,0,0,1.15.77,12.5,12.5,0,0,1,2.86.31l.24.14c.21.12.41.23.63.33l.2.09h2.87Zm-6.29-3.49h0a12.83,12.83,0,0,1-1.11-1.79,1.19,1.19,0,0,1-.08-.16h0c-.09-.17-.17-.33-.25-.51s-.15-.32-.21-.49A15.34,15.34,0,0,1,68,62.79l0-.12h0a4.72,4.72,0,0,1-.13-.54h0a6.74,6.74,0,0,1-.17-.75h0a16.57,16.57,0,0,1-.3-2s0-.07,0-.11h0a3.4,3.4,0,0,1,0-.45h0c0-.13,0-.27,0-.4h0c0-.26,0-.52,0-.78s0-.73,0-1.08h0s0,0,0,0a3.4,3.4,0,0,1,0-.45h0v-.18a18.4,18.4,0,0,1,.4-2.52l0-.16c0-.15.07-.29.11-.43a2.68,2.68,0,0,1,.07-.27h0a15.71,15.71,0,0,1,.65-1.9l.12-.28.21-.45c.1-.22.21-.43.32-.64a13.14,13.14,0,0,1,1.23-1.87s0,0,0,0a5.37,5.37,0,0,1,.44-.51c.13-.15.26-.29.4-.43-.14.15-.27.3-.4.46s-.27.34-.39.52A12.45,12.45,0,0,0,69.55,49h0c-.17.31-.32.63-.47,1,0,.12-.11.24-.15.37a.72.72,0,0,0-.09.2,16.21,16.21,0,0,0-.55,1.62h0c-.12.39-.22.8-.31,1.21a18.23,18.23,0,0,0-.35,2.27h0c0,.32-.06.64-.07,1s0,.65,0,1,0,.59,0,.88c0,.08,0,.16,0,.24a4.19,4.19,0,0,0,0,.5.76.76,0,0,0,0,.15A19.24,19.24,0,0,0,68,61.68h0l0,.14c.06.3.13.58.21.86v0a17.28,17.28,0,0,0,.72,2.1h0a.37.37,0,0,0,0,.11h0a7.22,7.22,0,0,0,.31.69l0,.06a14.29,14.29,0,0,0,1.15,2Z" transform="translate(-18 -18)"/><path class="cls-16" d="M85.76,56c0-.34-.07-.69-.13-1s-.08-.53-.14-.78a9.41,9.41,0,0,0-.23-.95c-.77-2.78-2.25-4.82-4-5.31a3.75,3.75,0,0,0-.57-.09.9.9,0,0,0-.23,0,.86.86,0,0,0-.23,0,1.84,1.84,0,0,0-.57.09c-1.76.46-3.25,2.47-4,5.25a9.23,9.23,0,0,0-.24.94c0,.26-.1.52-.14.79s-.1.66-.13,1c0,.54-.08,1.08-.08,1.64a14.61,14.61,0,0,0,1.59,7l0,0,.38.65h0a3.75,3.75,0,0,0,.36.48l.5.55a3.66,3.66,0,0,0,2.5,1.14,3.59,3.59,0,0,0,2.49-1.1,3.52,3.52,0,0,0,.5-.52c.13-.15.26-.32.38-.48l.42-.69a14.36,14.36,0,0,0,1.63-6.95C85.83,57,85.81,56.49,85.76,56Zm-.69-1.49a6.27,6.27,0,0,1,.13.71v0l-3,1.75a4,4,0,0,0-.14-.78l3-1.76A.13.13,0,0,1,85.07,54.47Zm-.24-1L81.47,55l-.23-6.23C82.78,49.19,84.11,51,84.83,53.45Zm-4.39,3.23c.27,0,.48.39.48.88s-.22.89-.49.88S80,58,80,57.55,80.16,56.68,80.44,56.68Zm-.23-8.06h.27a.76.76,0,0,1,.19,0h0v5.76a1,1,0,0,0-.24,0,.85.85,0,0,0-.23,0Zm-.56.1-.25,6.22h0L76.05,53.4C76.78,50.9,78.12,49.16,79.65,48.72Zm-4,6.37c0-.23.08-.48.13-.71,0,0,0,0,0,0l3,1.81a4.61,4.61,0,0,0-.15.79l-3-1.81S75.67,55.11,75.67,55.09Zm1.22,8.72a13.37,13.37,0,0,1-1.42-6.29c0-.45,0-.91.07-1.38l0,0,3.15,2.35ZM77.68,65l0,0a3.19,3.19,0,0,1-.32-.43l0,0,1.87-4.65a2.24,2.24,0,0,0,.37.5Zm2.73,1.53a3.31,3.31,0,0,1-2.23-1l2.23-4.76,2.23,4.79A3.22,3.22,0,0,1,80.41,66.53Zm3.09-1.94c-.11.15-.22.31-.35.46v0L81.28,60.4a2.4,2.4,0,0,0,.37-.5l1.86,4.67S83.51,64.58,83.5,64.59Zm.44-.71-1.81-5.37,3.19-2.31a13,13,0,0,1,.06,1.4A13.27,13.27,0,0,1,83.94,63.88Z" transform="translate(-18 -18)"/><path class="cls-8" d="M83.51,64.57s0,0,0,0a4.67,4.67,0,0,1-.35.46v0L83,64.61l-1.69-4.22a1.59,1.59,0,0,0,.2-.24,1.38,1.38,0,0,0,.17-.25L83,63.33l.27.68Z" transform="translate(-18 -18)"/><path class="cls-18" d="M78.84,56.14a5,5,0,0,0-.15.79l-1.08-.65a.89.89,0,0,1,0-.14Z" transform="translate(-18 -18)"/><path class="cls-8" d="M78.84,56.14h-1.2l-2-1.16c0-.2.07-.41.11-.6,0,0,0,0,0,0Z" transform="translate(-18 -18)"/><path class="cls-18" d="M85.38,57.59a13.31,13.31,0,0,1-1.44,6.29l-.27-.77-.25-.77a14.25,14.25,0,0,0,.76-4.75c0-.18,0-.37,0-.55l.44-.32.71-.52A12.93,12.93,0,0,1,85.38,57.59Z" transform="translate(-18 -18)"/><path class="cls-8" d="M82.64,65.57a3.64,3.64,0,0,1-.89.63,2.92,2.92,0,0,1-1.34.33,2.69,2.69,0,0,1-.57-.07,3.48,3.48,0,0,0,1.6-.89Z" transform="translate(-18 -18)"/><polygon class="cls-18" points="64.64 47.57 63.44 47.57 61.81 44.07 62.31 42.98 62.41 42.78 64.23 46.69 64.52 47.31 64.64 47.57"/><path class="cls-18" d="M79.56,60.37l-.25.62-1.63,4,0,0a3.18,3.18,0,0,1-.26-.35s-.05,0-.06-.09l0,0,1.87-4.65A2.24,2.24,0,0,0,79.56,60.37Z" transform="translate(-18 -18)"/><path class="cls-8" d="M78.73,58.51h-1.2l-2-1.52c0-.28,0-.56.05-.85l0,0Z" transform="translate(-18 -18)"/><path class="cls-18" d="M78.73,58.51l-.57,1.63-1.27,3.67c-.1-.17-.18-.35-.27-.54s-.28-.64-.4-1l1.31-3.77Z" transform="translate(-18 -18)"/><path class="cls-8" d="M79.65,48.72l-.18,4.55,0,1.1,0,.57h0l-1.18-.54.21-5A2.79,2.79,0,0,1,79,49a2.35,2.35,0,0,1,.46-.21Z" transform="translate(-18 -18)"/><path class="cls-8" d="M80.68,48.62V49l0,5.38a.58.58,0,0,0-.23,0,.55.55,0,0,0-.18,0l0-1.44,0-4.14v-.17h.26a.76.76,0,0,1,.19,0Z" transform="translate(-18 -18)"/><path class="cls-18" d="M84.83,53.45h-1.2a8.16,8.16,0,0,0-2.36-4.05l0-.67a3.08,3.08,0,0,1,.53.21C83.08,49.61,84.19,51.24,84.83,53.45Z" transform="translate(-18 -18)"/><polygon class="cls-8" points="66.83 35.45 66.2 35.74 63.47 36.96 63.45 36.43 65.63 35.45 66.83 35.45"/><path class="cls-18" d="M85.2,55.18v0H84v0L84,55l.43-.25.65-.38s0,0,0,.06C85.13,54.7,85.17,55,85.2,55.18Z" transform="translate(-18 -18)"/><path class="cls-8" d="M85.2,55.2l-.68.39L82.18,57c0-.22-.07-.43-.11-.63L84,55.2Z" transform="translate(-18 -18)"/><path class="cls-19" d="M80.69,55.25c0,.26-.12.47-.26.47s-.26-.21-.26-.47.12-.47.26-.47S80.69,55,80.69,55.25Z" transform="translate(-18 -18)"/><path class="cls-19" d="M79.5,56.83c0,.26-.11.47-.25.47s-.26-.21-.26-.47.11-.47.26-.47S79.5,56.57,79.5,56.83Z" transform="translate(-18 -18)"/><path class="cls-19" d="M80,59.36c0,.26-.11.47-.26.47s-.25-.21-.25-.47.11-.46.25-.46S80,59.1,80,59.36Z" transform="translate(-18 -18)"/><path class="cls-19" d="M81.43,59.36c0,.26-.12.47-.26.47s-.26-.21-.26-.47.12-.46.26-.46S81.43,59.1,81.43,59.36Z" transform="translate(-18 -18)"/><path class="cls-19" d="M81.88,56.83c0,.26-.11.47-.25.47s-.26-.21-.26-.47.11-.47.26-.47S81.88,56.57,81.88,56.83Z" transform="translate(-18 -18)"/><path class="cls-19" d="M80.43,56.27c-.39,0-.72.58-.72,1.3s.33,1.29.72,1.29.72-.58.72-1.29S80.83,56.27,80.43,56.27Zm0,2.17c-.27,0-.48-.4-.48-.89s.21-.87.49-.87.48.39.48.88S80.7,58.45,80.43,58.44Z" transform="translate(-18 -18)"/><rect class="cls-20" x="25.82" y="60.31" width="20.4" height="14.09" rx="0.97"/><path class="cls-21" d="M46.21,82a.88.88,0,0,1-.88.88H42.84A.88.88,0,0,1,42,82h0a.87.87,0,0,1,.88-.88h2.49a.87.87,0,0,1,.88.88Z" transform="translate(-18 -18)"/><path class="cls-21" d="M46.21,88.93a.87.87,0,0,1-.88.88H42.84a.87.87,0,0,1-.88-.88h0a.87.87,0,0,1,.88-.88h2.49a.87.87,0,0,1,.88.88Z" transform="translate(-18 -18)"/><rect class="cls-20" x="25.82" y="41.01" width="20.4" height="14.09" rx="0.97"/><path class="cls-21" d="M46.21,62.65a.87.87,0,0,1-.88.88H42.84a.87.87,0,0,1-.88-.88h0a.87.87,0,0,1,.88-.88h2.49a.87.87,0,0,1,.88.88Z" transform="translate(-18 -18)"/><path class="cls-21" d="M46.21,69.63a.87.87,0,0,1-.88.88H42.84a.87.87,0,0,1-.88-.88h0a.88.88,0,0,1,.88-.88h2.49a.88.88,0,0,1,.88.88Z" transform="translate(-18 -18)"/><rect class="cls-22" x="36.62" y="43.06" width="8.1" height="10.12"/><rect class="cls-23" x="37.42" y="43.87" width="6.49" height="2.16"/><rect class="cls-24" x="37.42" y="46.95" width="1.59" height="1.31"/><rect class="cls-24" x="39.87" y="46.95" width="1.59" height="1.31"/><rect class="cls-24" x="42.32" y="46.95" width="1.59" height="1.31"/><rect class="cls-24" x="37.42" y="48.94" width="1.59" height="1.31"/><rect class="cls-24" x="39.87" y="48.94" width="1.59" height="1.31"/><rect class="cls-24" x="42.32" y="48.94" width="1.59" height="1.31"/><rect class="cls-24" x="37.42" y="50.93" width="1.59" height="1.31"/><rect class="cls-24" x="39.87" y="50.93" width="1.59" height="1.31"/><rect class="cls-25" x="42.32" y="50.93" width="1.59" height="1.31"/><path class="cls-26" d="M97.62,75.57A2.49,2.49,0,0,0,98,74.32a2.28,2.28,0,0,0-1.31-2.14A4.59,4.59,0,0,0,94,71.87a14.16,14.16,0,0,1-.84,1.19,4.25,4.25,0,0,1,3,0A1.31,1.31,0,0,1,97,74.32a1.6,1.6,0,0,1-.3.86,3.42,3.42,0,0,0-3.36.7q-.94.91-.48,1.53c.52.71,2.31.24,2.91-.11a5.88,5.88,0,0,0,1.25-1s0,0,0,0a1.87,1.87,0,0,1,1,2.08,3,3,0,0,1-2.1,2s0,0,0,0a3.37,3.37,0,0,0-2.78-1.4,1.51,1.51,0,0,0-1.18,1,1,1,0,0,0,.27,1,3.92,3.92,0,0,0,3.29.48,1.33,1.33,0,0,1,.11,1.05,2.6,2.6,0,0,1-2.28,1.6c-.25-.77-.77-1.6-1.5-1.73a1.11,1.11,0,0,0-1.13.51,1.08,1.08,0,0,0-.11,1.2,2.45,2.45,0,0,0,2,1,2.44,2.44,0,0,1-.59,2.12,2.26,2.26,0,0,1-1.67.59,4.14,4.14,0,0,0-.8-1.76,1.45,1.45,0,0,0-2.13-.42A1.22,1.22,0,0,0,87,87a2.92,2.92,0,0,0,2.15,1.75l.29.08a1.7,1.7,0,0,1-.57,1.31,3,3,0,0,1-3.52.09v1.1a4.32,4.32,0,0,0,1.83.43,3.55,3.55,0,0,0,2.32-.88,2.67,2.67,0,0,0,.91-1.95A3.2,3.2,0,0,0,92.72,88a3.33,3.33,0,0,0,.9-2.82,3.57,3.57,0,0,0,3-2.2,2.24,2.24,0,0,0-.09-1.68,3.9,3.9,0,0,0,2.54-2.64A2.83,2.83,0,0,0,97.62,75.57Zm-2.31.89a3.85,3.85,0,0,1-1.5.35,2.16,2.16,0,0,1,.22-.23A2.31,2.31,0,0,1,96,76,7.66,7.66,0,0,1,95.31,76.46ZM92.94,80.4a.53.53,0,0,1,.41-.39h.13a2.39,2.39,0,0,1,1.43.73A2.86,2.86,0,0,1,92.94,80.4Zm-1.41,3.37s0-.07,0-.16a.24.24,0,0,1,.17-.13h0c.14,0,.4.26.6.71A1.34,1.34,0,0,1,91.53,83.77Zm-3.54,3a.22.22,0,0,1,.09-.26.32.32,0,0,1,.2-.08c.17,0,.35.13.56.37a3,3,0,0,1,.49,1A2,2,0,0,1,88,86.75Z" transform="translate(-18 -18)"/><rect class="cls-27" x="31.92" y="32.13" width="3.81" height="2.83"/><polygon class="cls-6" points="35.81 27.4 35.61 28.06 34.35 32.13 33.1 32.13 34.47 27.71 34.68 27.05 35.81 27.4"/><path class="cls-28" d="M55,44.92a1.62,1.62,0,1,1-1.07-2A1.61,1.61,0,0,1,55,44.92Z" transform="translate(-18 -18)"/><path class="cls-29" d="M54,44a.75.75,0,0,1-1.5,0A.75.75,0,0,1,54,44Z" transform="translate(-18 -18)"/><rect class="cls-27" x="26.92" y="32.13" width="3.82" height="2.83"/><polygon class="cls-6" points="26.85 27.4 27.05 28.06 28.31 32.13 29.56 32.13 28.19 27.71 27.98 27.05 26.85 27.4"/><path class="cls-30" d="M43.62,44.92a1.62,1.62,0,1,0,1.07-2A1.61,1.61,0,0,0,43.62,44.92Z" transform="translate(-18 -18)"/><path class="cls-29" d="M44,44a.75.75,0,1,0,.75-.75A.75.75,0,0,0,44,44Z" transform="translate(-18 -18)"/><path class="cls-31" d="M85.38,97.5l-17.9,17.9H66.7A48.7,48.7,0,0,1,18,66.71c0-.7,0-1.4.05-2.09L47.28,35.39v13h4.36l-.1.34-3.49,1.41h-.5l-1.37-4.42a1.63,1.63,0,1,0-1.13.35l1.26,4.07H44.92v1.26L39,53.79V97.5Z" transform="translate(-18 -18)"/><path class="cls-31" d="M98.1,78.46a3,3,0,0,1-2.1,2l0,0a3.36,3.36,0,0,0-2.78-1.4,1.5,1.5,0,0,0-1.17,1,1,1,0,0,0,.27,1,3.89,3.89,0,0,0,3.28.48,1.3,1.3,0,0,1,.12,1.05,2.61,2.61,0,0,1-2.28,1.6c-.26-.77-.77-1.6-1.51-1.73a1.12,1.12,0,0,0-1.13.51,1.06,1.06,0,0,0-.1,1.2,2.45,2.45,0,0,0,2,1,2.47,2.47,0,0,1-.59,2.12,2.26,2.26,0,0,1-1.67.59,4.14,4.14,0,0,0-.8-1.76,1.46,1.46,0,0,0-2.14-.42A1.25,1.25,0,0,0,87,87a2.94,2.94,0,0,0,2.15,1.75l.29.08a1.69,1.69,0,0,1-.56,1.31,3,3,0,0,1-3.53.09v-12A10.62,10.62,0,0,0,88,77.38a8.11,8.11,0,0,0,.88-.45A9.67,9.67,0,0,0,90,76.22a13.52,13.52,0,0,0,1.57-1.3,17.58,17.58,0,0,0,1.66-1.86,4.24,4.24,0,0,1,3,0A1.29,1.29,0,0,1,97,74.32a1.58,1.58,0,0,1-.29.86,3.41,3.41,0,0,0-3.36.7c-.63.61-.8,1.12-.49,1.53.53.71,2.32.24,2.92-.11a6.08,6.08,0,0,0,1.24-1l0,0A1.88,1.88,0,0,1,98.1,78.46Z" transform="translate(-18 -18)"/><path class="cls-31" d="M78.86,44.06h-6a6.28,6.28,0,0,0-2.64.69,3.77,3.77,0,0,0-.48.26,2.53,2.53,0,0,0-.23.12,9.37,9.37,0,0,0-2,1.78V41.68l5.06-5a2.08,2.08,0,0,0-.45,1.29V41.7h2.83A6.29,6.29,0,0,1,78.86,44.06Z" transform="translate(-18 -18)"/></g></g></svg>