<svg xmlns="http://www.w3.org/2000/svg" viewBox="0 0 97.41 97.41"><defs><style>.cls-1{isolation:isolate;}.cls-2{fill:#c4e115;}.cls-3{fill:#ababab;}.cls-4{fill:#67576a;}.cls-5{fill:#333245;}.cls-6{fill:#fff;}.cls-7{fill:#d1d1d1;mix-blend-mode:multiply;}</style></defs><title>repair</title><g class="cls-1"><g id="Layer_1" data-name="Layer 1"><path class="cls-2" d="M326.47,172.24a48.71,48.71,0,1,1-48.7-48.71A48.71,48.71,0,0,1,326.47,172.24Z" transform="translate(-229.06 -123.53)"/><path class="cls-3" d="M292.15,169.25a13,13,0,0,0-.42-1.82,7.85,7.85,0,0,0-.46-1.42,13,13,0,0,0-.74-1.71,17.7,17.7,0,0,0-13.11-9.59,16.7,16.7,0,0,0-1.85-.16,6.12,6.12,0,0,0-.74,0,6.63,6.63,0,0,0-.79,0,14,14,0,0,0-1.83.15A17.56,17.56,0,0,0,259,164.18a10.48,10.48,0,0,0-.78,1.71c-.16.46-.34.94-.47,1.42a14.91,14.91,0,0,0-.42,1.81,17.18,17.18,0,0,0-.27,3,17.52,17.52,0,0,0,5.22,12.56l.06,0,1.27,1.18.06,0a9.2,9.2,0,0,0,1.18.87l1.62,1a17.53,17.53,0,0,0,16.32.07,12,12,0,0,0,1.62-.94c.43-.28.83-.57,1.22-.86l1.39-1.25a17.54,17.54,0,0,0,5.33-12.54A18.34,18.34,0,0,0,292.15,169.25Zm-17.4,17a14,14,0,1,1,14.05-14.05A14,14,0,0,1,274.75,186.21Z" transform="translate(-229.06 -123.53)"/><path class="cls-4" d="M274.74,169.25a2.9,2.9,0,1,0,2.9,2.9A2.9,2.9,0,0,0,274.74,169.25Zm0,4.85a2,2,0,0,1-2-2,1.94,1.94,0,0,1,2-2,2,2,0,1,1,0,3.93Z" transform="translate(-229.06 -123.53)"/><path class="cls-5" d="M300.71,165.81l-.11-.37c-.17-.59-.37-1.18-.59-1.73,0,0,0,0,0,0a26.94,26.94,0,0,0-25.24-16.84c-14.89,0-26.95,11.62-26.95,25.93a23.46,23.46,0,0,0,6.94,16.8c1.12,1.64,1.62,3.12.73,3.95-1.1,1-.94,2.93,2,3.54,5.29.94,8.85,0,14.19.18a27.63,27.63,0,0,0,3,.15,29.44,29.44,0,0,0,3-.14c5.46-.26,9.05.76,14.42-.19,3-.61,3.14-2.51,2-3.54s-.19-2.83,1.34-4.79a.42.42,0,0,1,.06-.08,23.27,23.27,0,0,0,6.1-15.88A24.58,24.58,0,0,0,300.71,165.81ZM290,187.75l-1.72,1.52a17.13,17.13,0,0,1-1.51,1.09,14.73,14.73,0,0,1-2,1.17A21.69,21.69,0,0,1,274.67,194a21.29,21.29,0,0,1-10.09-2.54l-2-1.22a14.62,14.62,0,0,1-1.46-1.06l-.06,0-1.58-1.45-.07-.07a21.73,21.73,0,0,1-6.45-15.53,20.38,20.38,0,0,1,.35-3.67,14.86,14.86,0,0,1,.49-2.24c.17-.59.4-1.19.58-1.74a14.09,14.09,0,0,1,1-2.12,21.73,21.73,0,0,1,16.29-11.73,15.34,15.34,0,0,1,2.27-.18,7.39,7.39,0,0,1,1,0,7,7,0,0,1,.9,0,19.81,19.81,0,0,1,2.3.19,22,22,0,0,1,16.23,11.85c.33.69.64,1.4.9,2.12a11.67,11.67,0,0,1,.57,1.76,13.74,13.74,0,0,1,.5,2.25,22.38,22.38,0,0,1,.32,3.68A21.75,21.75,0,0,1,290,187.75Z" transform="translate(-229.06 -123.53)"/><path class="cls-6" d="M296.26,168.55a13.74,13.74,0,0,0-.5-2.25,11.67,11.67,0,0,0-.57-1.76c-.26-.72-.57-1.43-.9-2.12a22,22,0,0,0-16.23-11.85,19.81,19.81,0,0,0-2.3-.19,7,7,0,0,0-.9,0,7.39,7.39,0,0,0-1,0,15.34,15.34,0,0,0-2.27.18,21.73,21.73,0,0,0-16.29,11.73,14.09,14.09,0,0,0-1,2.12c-.18.55-.41,1.15-.58,1.74a14.86,14.86,0,0,0-.49,2.24,20.38,20.38,0,0,0-.35,3.67,21.73,21.73,0,0,0,6.45,15.53l.07.07,1.58,1.45.06,0a14.62,14.62,0,0,0,1.46,1.06l2,1.22A21.29,21.29,0,0,0,274.67,194a21.69,21.69,0,0,0,10.08-2.44,14.73,14.73,0,0,0,2-1.17,17.13,17.13,0,0,0,1.51-1.09l1.72-1.52a21.75,21.75,0,0,0,6.6-15.52A22.38,22.38,0,0,0,296.26,168.55ZM290.8,166a2.56,2.56,0,0,1,.12.32l.05.14c.15.44.3.87.41,1.31l-9.58,3.05a6.91,6.91,0,0,0-.58-1.73Zm-7.43-8.69.11.06a16.46,16.46,0,0,1,2.53,1.81,18.41,18.41,0,0,1,1.7,1.72,2.46,2.46,0,0,1,.22.25l.09.09c.3.37.6.74.87,1.14s.57.86.83,1.33L279,166.32l-.73-11A17.74,17.74,0,0,1,283.37,157.26Zm-2.75,13.26a1,1,0,0,1-1,1,1,1,0,1,1,1-1Zm-1.83,5.65a1,1,0,1,1-1-1A1,1,0,0,1,278.79,176.17ZM273.85,155a14.9,14.9,0,0,1,1.89,0l0,10.05a5.94,5.94,0,0,0-1-.07,6,6,0,0,0-.94.07Zm.89,11a1.05,1.05,0,1,1,0,2.1,1.05,1.05,0,0,1,0-2.1Zm0,3.32a2.9,2.9,0,1,1-2.88,2.91A2.91,2.91,0,0,1,274.74,169.25Zm-3,5.87a1,1,0,1,1-1,1A1,1,0,0,1,271.78,175.12ZM270,171.56a1,1,0,1,1,1-1A1,1,0,0,1,270,171.56Zm-8.39-10.49a1.2,1.2,0,0,0,.1-.11,16.67,16.67,0,0,1,4.27-3.58l.23-.14s.06-.05.1-.07a14.87,14.87,0,0,1,1.8-.85c.28-.13.57-.25.89-.38a8.42,8.42,0,0,1,.93-.28c.5-.16,1-.28,1.51-.39l-.8,11v0h0l-10.75-2.74A16.3,16.3,0,0,1,261.57,161.07Zm-3,5.17a.43.43,0,0,0,.05-.12l.12-.28,9.56,3.15a7.61,7.61,0,0,0-.63,1.75l-9.53-3.16C258.29,167.13,258.43,166.69,258.59,166.24ZM262,183.66c-.13-.16-.26-.3-.4-.46s-.06-.06-.1-.1a16.7,16.7,0,0,1-2.89-5.08l-.05-.13a18.83,18.83,0,0,1-.58-2,15.49,15.49,0,0,1-.35-2.35,13.48,13.48,0,0,1-.05-1.42V172a2.36,2.36,0,0,1,0-.37,13.33,13.33,0,0,1,.1-1.56l10.21,4.19Zm1.85,1.77,5.92-8.12a6.74,6.74,0,0,0,1.5,1.1l-5.95,8.11A13.32,13.32,0,0,1,263.82,185.43Zm16.73,2.91a18.41,18.41,0,0,1-2.84.77s-.08,0-.12,0a15.67,15.67,0,0,1-4.42.17c-.49-.05-.95-.1-1.43-.18a.35.35,0,0,1-.12,0,8.1,8.1,0,0,1-.79-.18,13.61,13.61,0,0,1-1.86-.54,12.28,12.28,0,0,1-1.45-.6l7.13-8.42,7.17,8.5A12,12,0,0,1,280.55,188.34Zm3.5-1.73-5.87-8.13a7.65,7.65,0,0,0,1.52-1.12l5.86,8.16A10.58,10.58,0,0,1,284.05,186.61Zm7.91-14.3a16.92,16.92,0,0,1-1,5.75.61.61,0,0,1-.05.12,6.21,6.21,0,0,1-.28.66,16.55,16.55,0,0,1-1.07,2.15,15.27,15.27,0,0,1-1.06,1.56c-.17.24-.35.46-.53.68,0,0-.07.05-.09.1s-.27.32-.41.47l-5.81-9.53,10.23-4.1a17.23,17.23,0,0,1,.13,2S292,172.27,292,172.31Z" transform="translate(-229.06 -123.53)"/><path class="cls-4" d="M278.79,176.17a1,1,0,1,1-1-1A1,1,0,0,1,278.79,176.17Z" transform="translate(-229.06 -123.53)"/><path class="cls-4" d="M272.82,176.17a1,1,0,1,1-1-1A1,1,0,0,1,272.82,176.17Z" transform="translate(-229.06 -123.53)"/><path class="cls-4" d="M271,170.52a1,1,0,1,1-1-1.05A1,1,0,0,1,271,170.52Z" transform="translate(-229.06 -123.53)"/><path class="cls-4" d="M275.79,167a1,1,0,1,1-1.05-1A1,1,0,0,1,275.79,167Z" transform="translate(-229.06 -123.53)"/><path class="cls-4" d="M280.62,170.52a1,1,0,0,1-1,1,1,1,0,1,1,1-1Z" transform="translate(-229.06 -123.53)"/><path class="cls-6" d="M319,159.16a4.1,4.1,0,0,1-3.32,4v.08a4.66,4.66,0,0,1-.13,1.06,4.2,4.2,0,0,1-4.05,3.13c-2.21,0-3.91-1-4.07-3.18-.11,0-.44,0-.55,0-2.27.43-4.35.35-6.29,1.18-.17-.59-.37-1.18-.59-1.73a12.27,12.27,0,0,0,7.06-4.4,3.07,3.07,0,1,1,5.11-3.24,4.11,4.11,0,0,1,6.83,3.09Z" transform="translate(-229.06 -123.53)"/><path class="cls-7" d="M294.21,196.13,270,220.33a48.75,48.75,0,0,1-40.27-39.92l24.91-24.91a25.25,25.25,0,0,0-6.84,17.26,23.42,23.42,0,0,0,6.94,16.8c1.11,1.64,1.62,3.12.72,3.95-1.09,1-.93,2.93,2,3.54,5.3.94,8.86,0,14.19.18a27.75,27.75,0,0,0,3,.15,29.64,29.64,0,0,0,3-.14c5.45-.26,9.05.76,14.42-.19A4.17,4.17,0,0,0,294.21,196.13Z" transform="translate(-229.06 -123.53)"/><path class="cls-7" d="M268.31,169a7.15,7.15,0,0,0-.62,1.75l-6.54-2.17a15,15,0,0,1,.59-1.75Z" transform="translate(-229.06 -123.53)"/><path class="cls-7" d="M267.87,174.25l-4.16,6.62a14,14,0,0,1-3-8.71c0-.29,0-.57,0-.85Z" transform="translate(-229.06 -123.53)"/><path class="cls-7" d="M271.23,178.42,267.15,184a13.11,13.11,0,0,1-1.48-1.09l4.07-5.58A7,7,0,0,0,271.23,178.42Z" transform="translate(-229.06 -123.53)"/><path class="cls-7" d="M279.7,185.31a14.1,14.1,0,0,1-10.07-.06l5-5.92Z" transform="translate(-229.06 -123.53)"/><path class="cls-7" d="M283.73,183a13.94,13.94,0,0,1-1.52,1.09l-4-5.58a8,8,0,0,0,1.52-1.12Z" transform="translate(-229.06 -123.53)"/><path class="cls-7" d="M276.71,172.13a2,2,0,1,1-3.93,0,2,2,0,0,1,3.93,0Z" transform="translate(-229.06 -123.53)"/><path class="cls-7" d="M275.72,158.15l0,6.88a6.11,6.11,0,0,0-1-.07,6,6,0,0,0-.94.07l0-6.89c.3,0,.6,0,.91,0S275.4,158.12,275.72,158.15Z" transform="translate(-229.06 -123.53)"/><path class="cls-7" d="M271.15,158.57l-.55,7.71v0h0L263,164.38A14,14,0,0,1,271.15,158.57Z" transform="translate(-229.06 -123.53)"/><path class="cls-7" d="M286.49,164.46,279,166.32l-.51-7.72A14,14,0,0,1,286.49,164.46Z" transform="translate(-229.06 -123.53)"/><path class="cls-7" d="M288.36,168.68l-6.57,2.09a6.51,6.51,0,0,0-.57-1.73l6.56-2.12A15.1,15.1,0,0,1,288.36,168.68Z" transform="translate(-229.06 -123.53)"/><path class="cls-7" d="M288.79,172.16a14,14,0,0,1-3.1,8.81l-4.08-6.7,7.16-2.87C288.78,171.65,288.79,171.9,288.79,172.16Z" transform="translate(-229.06 -123.53)"/></g></g></svg>