<svg xmlns="http://www.w3.org/2000/svg" viewBox="0 0 97.41 97.41"><defs><style>.cls-1{isolation:isolate;}.cls-2{fill:#f88011;}.cls-3{fill:#333;}.cls-4{fill:#a51e0d;}.cls-5{fill:#666;}.cls-6{fill:#ede9e4;}.cls-7{fill:#9f383a;}.cls-8{fill:#52a9c4;}.cls-9{fill:#176174;}.cls-10{fill:#b3b3b3;}.cls-10,.cls-12{opacity:0.86;}.cls-10,.cls-12,.cls-13{mix-blend-mode:multiply;}.cls-11{fill:#f4b410;}.cls-12{fill:#969696;}.cls-13{fill:#d1d1d1;}</style></defs><title>stop</title><g class="cls-1"><g id="Layer_1" data-name="Layer 1"><path class="cls-2" d="M432,172.24a48.71,48.71,0,1,1-48.71-48.71A48.71,48.71,0,0,1,432,172.24Z" transform="translate(-334.59 -123.53)"/><rect class="cls-3" x="67.55" y="47.7" width="8.52" height="16.72" rx="1.33"/><rect class="cls-4" x="22.97" y="48.55" width="4.21" height="14.06"/><rect class="cls-5" x="21.48" y="62.61" width="7.2" height="2.22"/><rect class="cls-5" x="19.57" y="49.53" width="3.41" height="1.75"/><rect class="cls-5" x="19.57" y="51.28" width="1.41" height="3.81"/><rect class="cls-4" x="16.08" y="53.9" width="3.49" height="1.19"/><path class="cls-6" d="M374,165.27c-2.45,3.52-4.68,2.64-7.31,2.38-1.44-.14-3.66-.36-3.86-2.15a4.72,4.72,0,0,1,.18-1.72c.26-.83.43-.69,1.33-.6a22.63,22.63,0,0,1,4,.76A47.18,47.18,0,0,1,374,165.27Z" transform="translate(-334.59 -123.53)"/><path class="cls-7" d="M365.88,175.54a1.84,1.84,0,1,1-1.65-2A1.84,1.84,0,0,1,365.88,175.54Z" transform="translate(-334.59 -123.53)"/><path class="cls-7" d="M369,175.84a1.31,1.31,0,1,1-1.17-1.43A1.31,1.31,0,0,1,369,175.84Z" transform="translate(-334.59 -123.53)"/><path class="cls-8" d="M407.54,162.61c.2.09.21.29.45.38a3.68,3.68,0,0,0,1-.05c.61,0,1.25-.05,1.86-.13a1.79,1.79,0,0,0,1.43-1.9c0-.85-.81-1.21-1.49-1.37s-1.55-.59-2.23-.27c-1,.48-.78,2.25-2.15,1.86-.93-2.14-3.71-7.53-3.95-7.84A4,4,0,0,0,400.5,152c-1-.28-11.14-1.82-13.05-2s-12.16-.63-13.2-.56a4.32,4.32,0,0,0-2.18.93c-.29.26-4.06,5-5.39,6.94-1.43.12-.88-1.58-1.76-2.24-.6-.44-1.55-.24-2.24-.19s-1.57.24-1.72,1.06A1.76,1.76,0,0,0,362,158c.59.2,1.2.35,1.78.51a4.17,4.17,0,0,0,1,.24c.24,0,.31-.24.51-.31a1.81,1.81,0,0,1,.69.16,1.07,1.07,0,0,1-.44.31l0,0a13.42,13.42,0,0,0-2.19,1.43c-1,.87-2.78,2.2-2.9,3a14.64,14.64,0,0,0-.62,3.08c0,.82-.06,3.31-.07,5.69s0,4.85,0,5c0,.38-.16.76,0,1.09s.52.47,1.16.52c.2,0,2.32.27,5.23.58l18.32,2L403.05,183l4.92.41c.63.07,1,0,1.23-.28s.11-.72.19-1.07.88-4.43,1.46-7.51c.25-1.36.47-2.51.53-3a15,15,0,0,0,0-3.15c0-.83-1.74-2.83-2.25-3.45a23.93,23.93,0,0,0-1.94-2c-.24-.2-.29-.2-.34-.37C407.08,162.6,407.34,162.51,407.54,162.61Zm-43.67,14.58a1.84,1.84,0,1,1,2-1.65A1.85,1.85,0,0,1,363.87,177.19Zm3.72-.18a1.31,1.31,0,1,1,1.44-1.17A1.3,1.3,0,0,1,367.59,177Zm1.75-3.35.37.06.54.09a1.08,1.08,0,0,0,.27.05Zm-2.62-6c-1.44-.14-3.66-.36-3.86-2.15a4.72,4.72,0,0,1,.18-1.72c.26-.83.43-.69,1.33-.6a22.63,22.63,0,0,1,4,.76,47.18,47.18,0,0,1,5.62,1.33C371.58,168.79,369.35,167.91,366.72,167.65Zm.17-9.28c-.4,0,5.69-7.76,5.69-7.76l14.72.78,14.59,2.09s4.48,8.74,4.08,8.7-13.53-2.07-19.48-2.54C380.56,158.94,367.27,158.39,366.89,158.37Zm33.3,20.52a1.31,1.31,0,1,1,1.17,1.43A1.3,1.3,0,0,1,400.19,178.89Zm3.32.32a1.84,1.84,0,1,1,1.65,2A1.87,1.87,0,0,1,403.51,179.21ZM402,176.79l.52,0a.13.13,0,0,1,.09,0Zm5.55-9.4c.91.09,1.09,0,1.2.85a4.76,4.76,0,0,1-.17,1.74c-.53,1.7-2.75,1.49-4.19,1.35-2.64-.26-5,.17-6.71-3.75a44.59,44.59,0,0,1,5.77-.21A23.38,23.38,0,0,1,407.51,167.39Z" transform="translate(-334.59 -123.53)"/><path class="cls-9" d="M406,162.18c-.38,0-13.53-2.07-19.48-2.54-5.93-.7-19.22-1.25-19.6-1.27s5.69-7.76,5.69-7.76l14.72.78,14.59,2.09S406.37,162.22,406,162.18Z" transform="translate(-334.59 -123.53)"/><path class="cls-6" d="M408.54,170c-.53,1.7-2.75,1.49-4.19,1.35-2.64-.26-5,.17-6.71-3.75a44.59,44.59,0,0,1,5.77-.21,23.38,23.38,0,0,1,4.1,0c.91.09,1.09,0,1.2.85A4.76,4.76,0,0,1,408.54,170Z" transform="translate(-334.59 -123.53)"/><path class="cls-7" d="M402.8,179.14a1.31,1.31,0,1,1-1.17-1.42A1.31,1.31,0,0,1,402.8,179.14Z" transform="translate(-334.59 -123.53)"/><path class="cls-7" d="M407.17,179.58a1.85,1.85,0,0,1-2,1.65,1.87,1.87,0,0,1-1.65-2,1.84,1.84,0,0,1,3.66.37Z" transform="translate(-334.59 -123.53)"/><path class="cls-10" d="M373.6,174.69c-.53,1.32-1.08,3.18-2.56,3.52a15,15,0,0,1-3.89-.13c-1.61-.15-3.12-.37-4.72-.53-1.44-.14-1.64-.64-1.17-2.05.42-1,.32-2,1.43-2.31S370.82,173.79,373.6,174.69Z" transform="translate(-334.59 -123.53)"/><path class="cls-10" d="M406.46,181.86c-1.6-.16-3.13-.24-4.74-.4a15.65,15.65,0,0,1-3.84-.62c-1.39-.62-1.56-2.55-1.83-4,2.9-.35,10,.17,11,.64s.74,1.47,1,2.54C408.18,181.54,407.9,182,406.46,181.86Z" transform="translate(-334.59 -123.53)"/><path class="cls-11" d="M365.88,175.54a1.84,1.84,0,1,1-1.65-2A1.84,1.84,0,0,1,365.88,175.54Z" transform="translate(-334.59 -123.53)"/><path class="cls-11" d="M369,175.84a1.31,1.31,0,1,1-1.17-1.43A1.31,1.31,0,0,1,369,175.84Z" transform="translate(-334.59 -123.53)"/><path class="cls-11" d="M407.17,179.58a1.85,1.85,0,0,1-2,1.65,1.87,1.87,0,0,1-1.65-2,1.84,1.84,0,0,1,3.66.37Z" transform="translate(-334.59 -123.53)"/><path class="cls-11" d="M402.8,179.14a1.31,1.31,0,1,1-1.17-1.42A1.31,1.31,0,0,1,402.8,179.14Z" transform="translate(-334.59 -123.53)"/><path class="cls-12" d="M396.35,173.89c-.4,1.12-1.42,3.37-2.09,4.76s-2.63,1-2.83,1l-13.83-1.35c-.2,0-2.21,0-2.59-1.51s-.95-3.89-1.12-5.07-.95-3.43,4.91-2.72c3,.37,5.21.58,6.62.7s3.6.37,6.64.6C397.94,170.71,396.76,172.7,396.35,173.89Z" transform="translate(-334.59 -123.53)"/><path class="cls-13" d="M410.13,187.68l-32.89,32.89a48.76,48.76,0,0,1-41.84-39.39l25.76-25.76a1,1,0,0,0-.2.46A1.74,1.74,0,0,0,362,158c.58.2,1.19.35,1.78.51a4.17,4.17,0,0,0,1,.24c.24,0,.3-.24.5-.31a1.82,1.82,0,0,1,.7.16,1.22,1.22,0,0,1-.44.31l0,0a13.41,13.41,0,0,0-2.2,1.43c-1,.87-2.77,2.2-2.89,3a15.16,15.16,0,0,0-.63,3.08c0,.81-.05,3.23-.06,5.58h-2.14v1h-3.41v4.37h-3.49v1.19h4.9v-3.81h2v11.33h-1.5v2.22h7.2v-2.22h-1.5v-7.21l4.29.47,18.31,2,17.77,1.49v3.69a1.34,1.34,0,0,0,1.33,1.33h5.87A1.26,1.26,0,0,0,410.13,187.68Z" transform="translate(-334.59 -123.53)"/></g></g></svg>