<svg xmlns="http://www.w3.org/2000/svg" viewBox="0 0 97.41 97.41"><defs><style>.cls-1{isolation:isolate;}.cls-2{fill:#c4e115;}.cls-3{fill:#b88f13;}.cls-4{fill:#ababab;}.cls-5{fill:#fff;}.cls-6{fill:#67576a;}.cls-7{fill:#4d4b69;}.cls-8{fill:#f6d614;}.cls-9{fill:#e4c115;}.cls-10{fill:#d0c3ab;}.cls-10,.cls-12{opacity:0.76;}.cls-10,.cls-12,.cls-13{mix-blend-mode:multiply;}.cls-11{fill:#533630;}.cls-12{fill:#c4b7a1;}.cls-13{fill:#d1d1d1;}</style></defs><title>tire_sell</title><g class="cls-1"><g id="Layer_1" data-name="Layer 1"><path class="cls-2" d="M220.94,383.29a48.71,48.71,0,1,1-48.7-48.7A48.71,48.71,0,0,1,220.94,383.29Z" transform="translate(-123.53 -334.59)"/><path class="cls-3" d="M195.21,382.3h-46a7.23,7.23,0,0,1-5.63-2.67l3.13,27.25a2.26,2.26,0,0,0,2.59,2.22h45.84a2.27,2.27,0,0,0,2.6-2.22l3.12-27.25A7.25,7.25,0,0,1,195.21,382.3Zm-42.07,23.88A2.41,2.41,0,0,1,150.5,404l-1.65-16.23a1.93,1.93,0,0,1,0-.24,2.41,2.41,0,0,1,4.81-.25l1.65,16.23a1.93,1.93,0,0,1,0,.24A2.42,2.42,0,0,1,153.14,406.18Zm11.55-2.35a2.41,2.41,0,0,1-4.81.1l-.79-16.29v-.11a2.41,2.41,0,0,1,4.81-.12l.79,16.29Zm10.11,0a2.41,2.41,0,0,1-4.82,0V387.52a2.41,2.41,0,0,1,2.41-2.41,2.42,2.42,0,0,1,2.41,2.41Zm11-16.19-.78,16.29a2.41,2.41,0,0,1-4.81-.11v-.12l.78-16.29a2.41,2.41,0,0,1,4.81.11Zm10.24.16L194.43,404a2.41,2.41,0,0,1-4.8-.24c0-.08,0-.16,0-.25l1.66-16.23a2.41,2.41,0,0,1,4.8.23A2.28,2.28,0,0,1,196.08,387.8Z" transform="translate(-123.53 -334.59)"/><path class="cls-4" d="M192.13,378a13.59,13.59,0,0,0-.47-2.08,8.78,8.78,0,0,0-.53-1.62,17.14,17.14,0,0,0-.84-2,20.27,20.27,0,0,0-15-11,16.84,16.84,0,0,0-2.12-.18,4.86,4.86,0,0,0-.85-.06,5.23,5.23,0,0,0-.9.06,16.06,16.06,0,0,0-2.09.16,20.11,20.11,0,0,0-15.08,10.86,11.52,11.52,0,0,0-.9,2c-.18.53-.39,1.07-.54,1.62a17.32,17.32,0,0,0-.48,2.07,20.3,20.3,0,0,0-.31,3.41,20,20,0,0,0,6,14.37l.06.07L159.5,397l.07,0a12.08,12.08,0,0,0,1.35,1l1.86,1.12a19.85,19.85,0,0,0,9.36,2.34,19.44,19.44,0,0,0,9.32-2.27,12.78,12.78,0,0,0,1.86-1.07c.49-.32.94-.65,1.4-1l1.59-1.43a20.11,20.11,0,0,0,6.1-14.35A20.41,20.41,0,0,0,192.13,378Zm-19.92,19.43a16.09,16.09,0,1,1,16.09-16.1A16.09,16.09,0,0,1,172.21,397.38Z" transform="translate(-123.53 -334.59)"/><path class="cls-5" d="M192.23,377.93a13.84,13.84,0,0,0-.47-2.1,10.46,10.46,0,0,0-.53-1.64,20.16,20.16,0,0,0-.85-2,20.42,20.42,0,0,0-15.1-11c-.71-.09-1.43-.17-2.13-.19a8.06,8.06,0,0,0-.85,0,8.64,8.64,0,0,0-.9,0,14.79,14.79,0,0,0-2.12.18,20.24,20.24,0,0,0-15.15,10.91,13.48,13.48,0,0,0-.91,2c-.18.53-.38,1.08-.54,1.63a17.2,17.2,0,0,0-.47,2.09,19.31,19.31,0,0,0-.32,3.41,20.22,20.22,0,0,0,6,14.46l.07.07,1.46,1.34.06,0a13.93,13.93,0,0,0,1.36,1l1.88,1.13a20.13,20.13,0,0,0,18.78.09,13.41,13.41,0,0,0,1.87-1.09c.49-.32,1-.66,1.4-1l1.6-1.43a20.26,20.26,0,0,0,6.14-14.44A21.42,21.42,0,0,0,192.23,377.93Zm-2.56-3.09a12.08,12.08,0,0,1,.48,1.48v0L178.76,380a6,6,0,0,0-.53-1.62l11.39-3.67A.5.5,0,0,0,189.67,374.84Zm-.91-2.11-12.63,3.12-.87-12.93A18.7,18.7,0,0,1,188.76,372.73Zm-16.54,6.7a1.84,1.84,0,1,1-1.84,1.82A1.81,1.81,0,0,1,172.22,379.43Zm-.83-16.74.2,0h.82a5,5,0,0,1,.69,0h0l0,12a6.54,6.54,0,0,0-.89-.06,6.25,6.25,0,0,0-.87.06Zm-2.12.2-.94,12.93h0l-12.59-3.21A18.61,18.61,0,0,1,169.27,362.89Zm-15,13.25c.13-.5.31-1,.49-1.49,0,0,0,0,0-.07l11.37,3.75a6.5,6.5,0,0,0-.57,1.64l-11.36-3.76Zm4.58,18.13a18.51,18.51,0,0,1-5.32-13.08,20.14,20.14,0,0,1,.26-2.87l.12,0,11.86,4.87Zm3,2.47,0-.06a10,10,0,0,1-1.23-.89l-.07-.06,7-9.66a5.86,5.86,0,0,0,1.4,1Zm10.29,3.17a18.34,18.34,0,0,1-8.4-2.07l8.38-9.87,8.4,9.95A18.15,18.15,0,0,1,172.14,399.91Zm11.62-4c-.42.31-.83.64-1.32.95,0,0,0,0,0,0l-7-9.71a6.8,6.8,0,0,0,1.41-1l7,9.71Zm1.63-1.49-6.79-11.14,12-4.81a17.66,17.66,0,0,1,.22,2.91A18.31,18.31,0,0,1,185.39,394.39Z" transform="translate(-123.53 -334.59)"/><path class="cls-6" d="M173.18,376.46a1,1,0,1,1-1-1A1,1,0,0,1,173.18,376.46Z" transform="translate(-123.53 -334.59)"/><path class="cls-6" d="M168.72,379.75a1,1,0,1,1-1-1A1,1,0,0,1,168.72,379.75Z" transform="translate(-123.53 -334.59)"/><path class="cls-6" d="M170.41,385a1,1,0,1,1-1.95,0,1,1,0,0,1,1.95,0Z" transform="translate(-123.53 -334.59)"/><path class="cls-6" d="M176,385a1,1,0,1,1-1-1A1,1,0,0,1,176,385Z" transform="translate(-123.53 -334.59)"/><path class="cls-6" d="M177.67,379.75a1,1,0,1,1-1-1A1,1,0,0,1,177.67,379.75Z" transform="translate(-123.53 -334.59)"/><path class="cls-6" d="M172.2,378.58a2.7,2.7,0,1,0,2.71,2.7A2.7,2.7,0,0,0,172.2,378.58Zm0,4.52a1.84,1.84,0,0,1-1.82-1.85,1.81,1.81,0,0,1,1.84-1.82,1.84,1.84,0,1,1,0,3.67Z" transform="translate(-123.53 -334.59)"/><path class="cls-7" d="M172.21,354a27.32,27.32,0,1,0,27.3,27.32A27.32,27.32,0,0,0,172.21,354Zm14.08,41.76-1.58,1.42c-.45.34-.91.68-1.4,1a12.7,12.7,0,0,1-1.86,1.08,20.12,20.12,0,0,1-18.68-.08L160.91,398a12.82,12.82,0,0,1-1.36-1l-.06,0L158,395.64l-.07-.07a20.08,20.08,0,0,1-6-14.38,19.2,19.2,0,0,1,.32-3.4,17.47,17.47,0,0,1,.47-2.08c.15-.54.36-1.09.54-1.61a12,12,0,0,1,.89-2,20.13,20.13,0,0,1,15.09-10.85,15.94,15.94,0,0,1,2.1-.17,6.37,6.37,0,0,1,.89-.05,6,6,0,0,1,.85.05,16.86,16.86,0,0,1,2.12.19,20.27,20.27,0,0,1,15,11,16.28,16.28,0,0,1,.84,2,10.23,10.23,0,0,1,.53,1.62,14,14,0,0,1,.47,2.09,21.4,21.4,0,0,1,.29,3.41A20.13,20.13,0,0,1,186.29,395.71Z" transform="translate(-123.53 -334.59)"/><path class="cls-8" d="M204.81,374.24a7.8,7.8,0,0,1-7.82,7.82H147.41a7.82,7.82,0,0,1-7.82-7.82c0-.12,0-.24,0-.35h65.2C204.81,374,204.81,374.12,204.81,374.24Z" transform="translate(-123.53 -334.59)"/><path class="cls-9" d="M197,382.06H147.41a7.78,7.78,0,0,1-6.06-2.88l3.36,29.36a2.45,2.45,0,0,0,2.79,2.4h49.4a2.45,2.45,0,0,0,2.79-2.4l3.37-29.36A7.8,7.8,0,0,1,197,382.06Zm-45.33,25.72a2.58,2.58,0,0,1-2.84-2.31L147,388a2.45,2.45,0,0,1,0-.27,2.6,2.6,0,0,1,5.19-.26L154,404.94a2.44,2.44,0,0,1,0,.27A2.58,2.58,0,0,1,151.66,407.78Zm12.45-2.53a2.6,2.6,0,0,1-5.19.11l-.84-17.55v-.12a2.59,2.59,0,0,1,5.18-.13l.85,17.56Zm10.89,0a2.6,2.6,0,0,1-2.59,2.6,2.63,2.63,0,0,1-1.84-.76,2.59,2.59,0,0,1-.76-1.84V387.68a2.6,2.6,0,0,1,5.19,0Zm11.9-17.44-.85,17.55a2.59,2.59,0,0,1-5.18-.12v-.12l.85-17.56a2.59,2.59,0,0,1,5.18.12Zm11,.18-1.78,17.48a2.6,2.6,0,0,1-5.18-.26,2.65,2.65,0,0,1,0-.27l1.78-17.48a2.59,2.59,0,0,1,5.17.25C198,387.8,197.94,387.89,197.94,388Z" transform="translate(-123.53 -334.59)"/><path class="cls-10" d="M203.06,379.18l-.54,4.67a8.58,8.58,0,0,1-1.35.1H143.25a8.84,8.84,0,0,1-1.37-.1l-.53-4.67a7.78,7.78,0,0,0,6.06,2.88H197A7.8,7.8,0,0,0,203.06,379.18Z" transform="translate(-123.53 -334.59)"/><path class="cls-11" d="M174.71,378.73a3.52,3.52,0,0,1-5,0h0a3.52,3.52,0,0,1,0-5l18.19-18.19a3.51,3.51,0,0,1,5,0h0a3.51,3.51,0,0,1,0,5Z" transform="translate(-123.53 -334.59)"/><path class="cls-12" d="M183,373.89l-6.54,6.53a3.49,3.49,0,0,1-4.95,0,3.2,3.2,0,0,1-.7-1,3.52,3.52,0,0,0,4-.7l4.84-4.84Z" transform="translate(-123.53 -334.59)"/><path class="cls-13" d="M198.88,410.34,177.5,431.72a50.93,50.93,0,0,1-5.27.28,48.72,48.72,0,0,1-48.31-42.43l15.67-15.68v.35a7.85,7.85,0,0,0,1.75,4.94l.54,4.67,2.82,24.69a2.45,2.45,0,0,0,2.8,2.4h49.39A3,3,0,0,0,198.88,410.34Z" transform="translate(-123.53 -334.59)"/><path class="cls-13" d="M177.43,366.07l-1.84,1.84-.16-2.38A13.73,13.73,0,0,1,177.43,366.07Z" transform="translate(-123.53 -334.59)"/><path class="cls-13" d="M173.12,365.23l0,5.17-1.77,1.77,0-6.95.84,0C172.51,365.2,172.82,365.21,173.12,365.23Z" transform="translate(-123.53 -334.59)"/><path class="cls-13" d="M186.2,373.36l-2.15.53h-4.51l4-4A16.1,16.1,0,0,1,186.2,373.36Z" transform="translate(-123.53 -334.59)"/><path class="cls-13" d="M169.08,365.51l-.61,8.38h-7.75l-2.46-.63A16,16,0,0,1,169.08,365.51Z" transform="translate(-123.53 -334.59)"/><path class="cls-13" d="M163.59,394.38l-.25.34a16.65,16.65,0,0,1-1.37-1l1.49-2Z" transform="translate(-123.53 -334.59)"/><path class="cls-13" d="M174.79,391.14v6a15.67,15.67,0,0,1-2.58.21,14.91,14.91,0,0,1-2.23-.16v-6.74l2.13-2.51Z" transform="translate(-123.53 -334.59)"/><path class="cls-13" d="M163.23,387.33l-3,4.74a15.27,15.27,0,0,1-1-1.24l-.15-3.19v-.11a2.4,2.4,0,0,1,2-2.38h0A2.55,2.55,0,0,1,163.23,387.33Z" transform="translate(-123.53 -334.59)"/><path class="cls-13" d="M154,405.21a2.53,2.53,0,0,1-.12.77,2.32,2.32,0,0,1-.74.2A2.4,2.4,0,0,1,150.5,404l-.73-7.18a26.16,26.16,0,0,0,3.84,4.43l.37,3.66A2.45,2.45,0,0,1,154,405.21Z" transform="translate(-123.53 -334.59)"/><path class="cls-13" d="M195.26,395.89l-.83,8.14a2.4,2.4,0,0,1-2.64,2.15,2.19,2.19,0,0,1-.68-.17,2.36,2.36,0,0,1-.13-.8,2.53,2.53,0,0,1,0-.27l.44-4.28A26.36,26.36,0,0,0,195.26,395.89Z" transform="translate(-123.53 -334.59)"/><path class="cls-13" d="M185.84,387.52v.12l-.11,2.35v0a16.25,16.25,0,0,1-1.7,2.17l-2.36-3.87h0l0-.74a2.59,2.59,0,0,1,2.08-2.41h0A2.41,2.41,0,0,1,185.84,387.52Z" transform="translate(-123.53 -334.59)"/></g></g></svg>