<svg xmlns="http://www.w3.org/2000/svg" viewBox="0 0 97.41 97.41"><defs><style>.cls-1{isolation:isolate;}.cls-2{fill:#f88011;}.cls-3{fill:#333245;}.cls-4{fill:#fff;}.cls-5{fill:#67576a;}.cls-6{fill:#52aec2;}.cls-7{fill:#abc7c4;}.cls-8{fill:#2b957c;}.cls-9{fill:#f54010;}.cls-10{fill:#5e2213;}.cls-11{fill:#b8c0c1;opacity:0.65;}.cls-11,.cls-13{mix-blend-mode:multiply;}.cls-12{fill:#5bbac7;}.cls-13{fill:#d1d1d1;}</style></defs><title>vulcan</title><g class="cls-1"><g id="Layer_1" data-name="Layer 1"><path class="cls-2" d="M220.94,277.77a48.71,48.71,0,1,1-48.7-48.71A48.71,48.71,0,0,1,220.94,277.77Z" transform="translate(-123.53 -229.06)"/><path class="cls-3" d="M192.33,278l1.58-.28-.14-.78-.7-4.15-1.59.26c-.18-.69-.39-1.36-.63-2s-.5-1.32-.8-2l1.39-.79-1.48-2.6-1-1.76-1.39.8a25.42,25.42,0,0,0-2.72-3.29l1-1.22-3.83-3.22-1,1.21c-.65-.47-1.34-.89-2-1.3-.53-.3-1.09-.59-1.64-.85l.56-1.49-4.69-1.75-.55,1.52a25.68,25.68,0,0,0-4.2-.77v-1.6l-5,0v1.6a27,27,0,0,0-4.22.73l-.54-1.51-4.71,1.7.54,1.49a26.26,26.26,0,0,0-3.7,2.11l-1-1.23L146,259.94l1,1.24a23.81,23.81,0,0,0-2.75,3.27l-1.4-.83L140.33,268l1.38.8a24.19,24.19,0,0,0-1.46,4l-1.59-.29-.9,4.93,1.58.27a24.47,24.47,0,0,0,0,4.28l-1.59.27.85,4.93,1.58-.27c.19.69.4,1.37.64,2s.5,1.33.79,2l-1.39.79,2.27,4,.22.39,1.38-.79a26.19,26.19,0,0,0,2.73,3.29l-1,1.22,3.82,3.22,1-1.21a26.62,26.62,0,0,0,3.69,2.14l-.55,1.5,4.68,1.74.56-1.52a23.8,23.8,0,0,0,4.19.78V308l5,0v-1.6a27.74,27.74,0,0,0,4.2-.72l.55,1.51,4.7-1.69-.53-1.51a25.36,25.36,0,0,0,3.7-2.12l1,1.24,3.84-3.2-1-1.23a25.11,25.11,0,0,0,2.75-3.26l1.39.82,2.52-4.33-1.39-.8a24,24,0,0,0,1.48-4l1.58.29.89-4.92-1.56-.29A25.25,25.25,0,0,0,192.33,278Zm-13.48,15.33-1.46,1.31c-.41.32-.84.64-1.29.93a14.57,14.57,0,0,1-1.72,1,18.55,18.55,0,0,1-17.26-.08l-1.73-1a13.7,13.7,0,0,1-1.24-.92l-.06,0-1.35-1.24-.07-.07a18.63,18.63,0,0,1-5.52-13.29,17.12,17.12,0,0,1,.31-3.13,12.51,12.51,0,0,1,.42-1.93c.15-.49.33-1,.5-1.49a11,11,0,0,1,.83-1.81,18.61,18.61,0,0,1,13.93-10,12.49,12.49,0,0,1,1.94-.16,5.63,5.63,0,0,1,.83,0,5.23,5.23,0,0,1,.79,0,18.56,18.56,0,0,1,2,.17,18.8,18.8,0,0,1,13.89,10.13c.28.6.56,1.2.78,1.82a11.38,11.38,0,0,1,.48,1.5,11.8,11.8,0,0,1,.43,1.94,19.19,19.19,0,0,1,.27,3.14A18.53,18.53,0,0,1,178.85,293.28Z" transform="translate(-123.53 -229.06)"/><path class="cls-4" d="M170,277.65a.89.89,0,1,0,.9.89A.89.89,0,0,0,170,277.65Zm-1.56,4.83a.9.9,0,1,0,.9.9A.89.89,0,0,0,168.39,282.48Zm-.08-2.53a2.48,2.48,0,1,0-2.49,2.47A2.48,2.48,0,0,0,168.31,280Zm-2.49,1.66a1.68,1.68,0,0,1-1.67-1.7,1.68,1.68,0,1,1,1.67,1.7Zm0-5.2a.9.9,0,1,0-.89-.9A.9.9,0,0,0,165.82,276.41Zm-2.54,6.07a.9.9,0,1,0,.89.9A.89.89,0,0,0,163.28,282.48Zm-1.55-4.83a.89.89,0,1,0,.89.89A.88.88,0,0,0,161.73,277.65Z" transform="translate(-123.53 -229.06)"/><path class="cls-4" d="M184.23,276.86a11,11,0,0,0-.44-1.93,9.67,9.67,0,0,0-.47-1.5,16.23,16.23,0,0,0-.79-1.81,18.73,18.73,0,0,0-13.87-10.14,16.2,16.2,0,0,0-2-.17,7,7,0,0,0-.78,0,7.63,7.63,0,0,0-.84,0,12.59,12.59,0,0,0-1.94.16,18.61,18.61,0,0,0-13.93,10,10.74,10.74,0,0,0-.84,1.82c-.16.47-.34,1-.49,1.48a12,12,0,0,0-.42,1.93,18,18,0,0,0-.31,3.13,18.59,18.59,0,0,0,5.52,13.29l.07.06,1.35,1.24.06,0a12.43,12.43,0,0,0,1.24.92l1.74,1a18.31,18.31,0,0,0,8.63,2.17,18.59,18.59,0,0,0,8.63-2.09,12.73,12.73,0,0,0,1.71-1c.45-.29.88-.61,1.29-.93l1.47-1.3A18.65,18.65,0,0,0,184.5,280,18.26,18.26,0,0,0,184.23,276.86Zm-11-9.66.11.05a14.21,14.21,0,0,1,2.16,1.55,14.37,14.37,0,0,1,1.45,1.47l.2.21a.71.71,0,0,1,.07.09,11.81,11.81,0,0,1,.74,1c.26.37.5.74.72,1.13l-9.2,2.28-.65-9.44A14.77,14.77,0,0,1,173.19,267.2Zm-2.34,11.34a.9.9,0,1,1-.9-.89A.89.89,0,0,1,170.85,278.54Zm-1.56,4.84a.9.9,0,1,1-.89-.9A.89.89,0,0,1,169.29,283.38Zm-3.47-8.76a.9.9,0,1,1-.89.9A.89.89,0,0,1,165.82,274.62Zm0,2.84a2.48,2.48,0,1,1-2.46,2.49A2.48,2.48,0,0,1,165.82,277.46Zm-2.54,5a.9.9,0,1,1-.9.9A.9.9,0,0,1,163.28,282.48Zm-1.55-3.05a.89.89,0,1,1,0-1.78.89.89,0,1,1,0,1.78Zm-7.18-9,.09-.09a14.29,14.29,0,0,1,3.65-3.07,1.2,1.2,0,0,1,.2-.11s0-.05.07-.07a13.06,13.06,0,0,1,1.56-.72c.24-.12.48-.22.75-.33a6.75,6.75,0,0,1,.8-.24q.65-.19,1.29-.33l-.68,9.42h0l-9.2-2.34A14.74,14.74,0,0,1,154.55,270.46Zm.34,19.33-.34-.4-.08-.08A14.32,14.32,0,0,1,152,285l0-.11a13.73,13.73,0,0,1-.49-1.71,13.55,13.55,0,0,1-.31-2c0-.41,0-.81-.05-1.21,0-.06,0-.08,0-.11h0a1.67,1.67,0,0,1,0-.31,9.83,9.83,0,0,1,.09-1.34l8.73,3.58Zm15.9,4a16.53,16.53,0,0,1-2.43.66h-.1a13.44,13.44,0,0,1-3.79.15c-.41,0-.81-.09-1.22-.16l-.11,0a6.29,6.29,0,0,1-.66-.16,10.06,10.06,0,0,1-1.6-.46,10.4,10.4,0,0,1-1.24-.51l6.1-7.2,6.14,7.27C171.53,293.52,171.17,293.66,170.79,293.79Zm9.76-13.72a14.64,14.64,0,0,1-.9,4.93.21.21,0,0,1,0,.1,4.62,4.62,0,0,1-.24.57,14.17,14.17,0,0,1-.91,1.83,12.6,12.6,0,0,1-.91,1.34c-.15.21-.3.4-.45.58,0,0-.07.05-.08.09s-.23.27-.35.4l-5-8.16,8.75-3.5a14.29,14.29,0,0,1,.1,1.72Z" transform="translate(-123.53 -229.06)"/><path class="cls-5" d="M166.72,275.51a.9.9,0,1,1-.9-.89A.9.9,0,0,1,166.72,275.51Z" transform="translate(-123.53 -229.06)"/><path class="cls-5" d="M162.62,278.54a.89.89,0,1,1-.89-.89A.89.89,0,0,1,162.62,278.54Z" transform="translate(-123.53 -229.06)"/><path class="cls-5" d="M164.17,283.38a.89.89,0,1,1-.89-.9A.89.89,0,0,1,164.17,283.38Z" transform="translate(-123.53 -229.06)"/><path class="cls-5" d="M169.29,283.38a.9.9,0,1,1-.9-.9A.89.89,0,0,1,169.29,283.38Z" transform="translate(-123.53 -229.06)"/><path class="cls-5" d="M170.85,278.54a.9.9,0,1,1-.9-.89A.89.89,0,0,1,170.85,278.54Z" transform="translate(-123.53 -229.06)"/><path class="cls-5" d="M165.82,277.46a2.48,2.48,0,1,0,2.49,2.49A2.49,2.49,0,0,0,165.82,277.46Zm0,4.15a1.68,1.68,0,0,1-1.67-1.7,1.68,1.68,0,1,1,1.67,1.7Z" transform="translate(-123.53 -229.06)"/><rect class="cls-6" x="71.77" y="36.91" width="6.6" height="5.16"/><path class="cls-4" d="M206.73,259.81a8.13,8.13,0,1,1-8.13-8.13A8.13,8.13,0,0,1,206.73,259.81Z" transform="translate(-123.53 -229.06)"/><path class="cls-7" d="M205.31,259.81a6.71,6.71,0,1,1-6.71-6.71A6.71,6.71,0,0,1,205.31,259.81Z" transform="translate(-123.53 -229.06)"/><path class="cls-8" d="M204.69,258l-1.48,1.47a6.53,6.53,0,0,0-9.21,0L192.52,258a8.59,8.59,0,0,1,12.17,0Z" transform="translate(-123.53 -229.06)"/><path class="cls-9" d="M204.69,258l-1.48,1.48A6.48,6.48,0,0,0,201,258l.73-2A8.35,8.35,0,0,1,204.69,258Z" transform="translate(-123.53 -229.06)"/><path class="cls-10" d="M199.45,263.16a1,1,0,1,1-1.92-.71,1.14,1.14,0,0,1,.1-.19l3.16-5.63L199.5,263A.49.49,0,0,1,199.45,263.16Z" transform="translate(-123.53 -229.06)"/><rect class="cls-4" x="72.39" y="42.07" width="5.36" height="0.67"/><path class="cls-11" d="M197.69,266.46a8.92,8.92,0,0,0,.91.05,6.71,6.71,0,1,0,0-13.41,8.88,8.88,0,0,0-.91.06,6.71,6.71,0,0,1,0,13.3Z" transform="translate(-123.53 -229.06)"/><path class="cls-12" d="M200.7,300.18c-7.74,2.17-19.14-14.46-25.32-7.28a.34.34,0,0,1-.08.09.63.63,0,0,1-1.08-.45.74.74,0,0,1,.05-.25h0c.1-.11.2-.22.3-.31,5.83-5.83,14.79,3,20.17,5.69,2.42,1.18,5.76,2.47,7.79-.13,3.09-3.95.09-7.42-2.56-10.21-4.34-4.58-2.53-9.78-2.2-15.52h1.55c-.32,3.38-1.56,7.32-.67,10.49,1,3.72,4.19,5.52,5.86,8.81A6.21,6.21,0,0,1,200.7,300.18Z" transform="translate(-123.53 -229.06)"/><path class="cls-13" d="M203.35,298.72l-27.64,27.63q-1.72.12-3.48.12a48.71,48.71,0,0,1-48.46-43.76l19.08-19.09L140.32,268l1.38.8a25.13,25.13,0,0,0-1.46,4l-1.58-.29-.91,4.93,1.58.27a25.48,25.48,0,0,0,0,4.28l-1.58.27.84,4.93,1.59-.27c.19.69.4,1.37.63,2s.51,1.33.8,2l-1.39.79,2.27,3.95.22.4,1.38-.79a27,27,0,0,0,2.72,3.29l-1,1.22,3.82,3.22,1-1.21a26.05,26.05,0,0,0,3.69,2.14l-.55,1.5,4.68,1.74.55-1.52a23.91,23.91,0,0,0,4.2.78V308l5,0v-1.6a28,28,0,0,0,4.2-.72l.54,1.51,4.71-1.69L177.1,304a26,26,0,0,0,3.71-2.12l1,1.24,3.85-3.2-1-1.23a24.42,24.42,0,0,0,2.76-3.26l1.39.82.29-.51c4.08,2.69,8.2,5.39,11.61,4.43A6.45,6.45,0,0,0,203.35,298.72Z" transform="translate(-123.53 -229.06)"/><path class="cls-13" d="M159.94,281.73l-5.06,8.06-.33-.4-.08-.08A14.32,14.32,0,0,1,152,285l0-.11a15.76,15.76,0,0,1-.5-1.71,13.54,13.54,0,0,1-.3-2c0-.41,0-.81-.05-1.21,0-.06,0-.08,0-.11h0a1.67,1.67,0,0,1,0-.31,11.76,11.76,0,0,1,.08-1.34Z" transform="translate(-123.53 -229.06)"/><path class="cls-13" d="M163,265.5l-.68,9.42h0l-9.19-2.34a14,14,0,0,1,1.48-2.13l.08-.09a14.34,14.34,0,0,1,3.66-3.07,1.6,1.6,0,0,1,.19-.11s.06-.05.08-.07a12.91,12.91,0,0,1,1.55-.72c.24-.12.48-.22.76-.33a6.59,6.59,0,0,1,.79-.24Q162.31,265.64,163,265.5Z" transform="translate(-123.53 -229.06)"/><path class="cls-13" d="M178.63,272.67l-9.2,2.28-.64-9.44a15,15,0,0,1,4.4,1.69l.1.05a13.48,13.48,0,0,1,3.61,3,1.88,1.88,0,0,1,.2.21.71.71,0,0,1,.07.09,10,10,0,0,1,.75,1C178.17,271.91,178.41,272.28,178.63,272.67Z" transform="translate(-123.53 -229.06)"/><path class="cls-13" d="M180.54,280v.1a14.4,14.4,0,0,1-.9,4.93.38.38,0,0,1,0,.1q-.11.28-.24.57a15.58,15.58,0,0,1-.91,1.83,12.68,12.68,0,0,1-.92,1.34,6.84,6.84,0,0,1-.45.58s-.06.05-.07.09-.23.27-.36.4l-5-8.16,8.75-3.5A16.66,16.66,0,0,1,180.54,280Z" transform="translate(-123.53 -229.06)"/><path class="cls-13" d="M171.88,293.36c-.35.16-.72.3-1.1.43a16.07,16.07,0,0,1-2.42.66h-.1a13.46,13.46,0,0,1-3.79.15c-.41,0-.81-.09-1.22-.16l-.12,0a6.29,6.29,0,0,1-.66-.16,9.94,9.94,0,0,1-1.59-.46,10.4,10.4,0,0,1-1.24-.51l6.09-7.2Z" transform="translate(-123.53 -229.06)"/><path class="cls-13" d="M167.51,279.93a1.68,1.68,0,1,1-3.36,0,1.68,1.68,0,0,1,3.36,0Z" transform="translate(-123.53 -229.06)"/><path class="cls-13" d="M202.53,297.53c-2,2.6-5.38,1.31-7.8.13a52.1,52.1,0,0,1-5-3.07l1.54-2.66-1.38-.8a25,25,0,0,0,1.48-4l1.57.29.9-4.92-1.56-.29a24.24,24.24,0,0,0,0-4.26l1.58-.28-.14-.78-.7-4.15-1.58.26c-.19-.69-.4-1.36-.63-2s-.51-1.32-.81-2l1.4-.79-1.48-2.6-1-1.76-1.39.8a26.68,26.68,0,0,0-2.35-2.91l7.27-7.28a8.13,8.13,0,0,0,2.81,12.78v3.89h.63v.67h1.84c-.32,5.74-2.13,10.94,2.21,15.52C202.62,290.11,205.61,293.58,202.53,297.53Z" transform="translate(-123.53 -229.06)"/></g></g></svg>