<svg xmlns="http://www.w3.org/2000/svg" viewBox="0 0 97.41 97.41"><defs><style>.cls-1{isolation:isolate;}.cls-2{fill:#6d5689;}.cls-3{fill:gray;}.cls-4{fill:#cce115;}.cls-5,.cls-9{fill:#b3b3b3;}.cls-6{fill:#fff;}.cls-7{fill:#e5e5e5;}.cls-8{fill:#67576a;}.cls-10,.cls-9{mix-blend-mode:multiply;}.cls-10{fill:#d1d1d1;}</style></defs><title>wheels</title><g class="cls-1"><g id="Layer_1" data-name="Layer 1"><circle class="cls-2" cx="66.71" cy="172.24" r="48.71" transform="translate(-134.32 73.52) rotate(-76.55)"/><path class="cls-3" d="M94.18,172.21a27.23,27.23,0,0,1-7.13,18.48l-1.86,1.84c-.52.44-1.06.88-1.63,1.28a15.63,15.63,0,0,1-2.17,1.39,21.53,21.53,0,0,1-10.9,2.92,21.27,21.27,0,0,1-6.12-.92,18.57,18.57,0,0,1-2.37-.87,17.77,17.77,0,0,0,1.91-.34.78.78,0,0,0,.21,0l.49-.11a13.63,13.63,0,0,0,1.43-.37A20.14,20.14,0,0,0,69,194.32l.3-.15a5.12,5.12,0,0,0,.52-.27,24.4,24.4,0,0,0,1.62-42.64l0,0a21.29,21.29,0,0,0-5.36-2.5c-.45-.14-.92-.26-1.38-.36s-.72-.16-1.09-.22l-.39-.05-.05,0c-.42-.08-.85-.15-1.27-.19a18.73,18.73,0,0,1,2.5-.92,22.19,22.19,0,0,1,2.82-.65,16.78,16.78,0,0,1,2.46-.22,7.21,7.21,0,0,1,1.06-.06,6.61,6.61,0,0,1,1,.06,19.29,19.29,0,0,1,2.48.25c7.69,1.29,14.18,6.71,17.54,14.12a19.82,19.82,0,0,1,1,2.53,12.52,12.52,0,0,1,.61,2.09,16.36,16.36,0,0,1,.55,2.7A28.66,28.66,0,0,1,94.18,172.21Z" transform="translate(-18 -123.53)"/><path class="cls-4" d="M80.2,191.34s0,0,0,0l0,0Zm8.15-23-.42-2.17-12,4.22a5.13,5.13,0,0,0-.12-.59l-1.23.44-.46.16a8.28,8.28,0,0,0-.43-1.61c-.07-.18-.13-.36-.21-.54l13.64-4.84-.9-2.29-13.51,3.68,0-.35-1.72.47-1-17.08-.89-.1,0,15.44a6.44,6.44,0,0,0-1.07-.09c-.21,0-.4,0-.59,0v.21a6.43,6.43,0,0,0-1.07-.08,6,6,0,0,0-1,.08l.08-15.8-1,.1-1.12,17.12v0h0l-1.51-.42,0,.52h0L47.6,161l-.89,2.15,13.92,5.05a9.65,9.65,0,0,0-.7,2.21l-1.36-.5c0,.17-.09.34-.13.51l-12.51-4.56-.45,2.32.14.07,14.51,6.57-8.46,14.87,1,1,8.09-12.19a6.73,6.73,0,0,0,1,.92l.51-.76A6.91,6.91,0,0,0,64,180l-8.68,13,1.1.71,9.82-12.74.91,1.18.73-1,9.43,12.3,1.25-.79-8.4-12.8a7.37,7.37,0,0,0,1.7-1.36l.71,1.09a6.58,6.58,0,0,0,1-.93l7.63,11.68.9-.91L74,174.7Zm-23,1.54h0a1.93,1.93,0,0,1,1-.24,1.77,1.77,0,0,1,.77.17h0a2.06,2.06,0,0,1,.87-.19,2.37,2.37,0,0,1,2.23,2.48,2.47,2.47,0,0,1,0,.39c0,.12-.05.23-.07.34a2.24,2.24,0,0,1-.14.36,1,1,0,0,1-.13.25.56.56,0,0,1-.1.15.75.75,0,0,1-.13.18,1.52,1.52,0,0,1-.31.31,1,1,0,0,1-.23.17l-.14.08a2.36,2.36,0,0,1-.28.12,1.92,1.92,0,0,1-.3.08,2.33,2.33,0,0,1-.37,0h0a.55.55,0,0,1-.18,0h-.09a1.09,1.09,0,0,1-.26-.05l-.15,0a.48.48,0,0,1-.21-.09h0a2.12,2.12,0,0,1-.75.14,2,2,0,0,1-1-.3h0a2.52,2.52,0,0,1-1.13-2.15A2.4,2.4,0,0,1,65.35,169.9Z" transform="translate(-18 -123.53)"/><path class="cls-5" d="M69.09,147.07v.69l0,15.44a6.44,6.44,0,0,0-1.07-.09c-.21,0-.4,0-.59,0l0-15.59Z" transform="translate(-18 -123.53)"/><polygon class="cls-5" points="46.38 23.81 46.35 24.13 45.23 41.24 45.23 41.26 45.22 41.26 43.72 40.84 44.8 24.29 46.38 23.81"/><path class="cls-5" d="M60.63,168.15a9.65,9.65,0,0,0-.7,2.21l-1.36-.5a8,8,0,0,1,.56-1.65l-13.63-5,1.08-2.59,1,.28-.89,2.15Z" transform="translate(-18 -123.53)"/><polygon class="cls-5" points="33.67 66.11 34.64 67.09 34.28 67.65 32.36 65.72 40.65 51.15 26.43 44.71 26.3 44.66 26.83 41.88 27.93 42.28 27.48 44.6 27.62 44.67 42.13 51.24 33.67 66.11"/><path class="cls-5" d="M55.29,193l1.1.71-.22.3-2.27-1.46,8.5-12.72a4.71,4.71,0,0,1-.65-.45l.51-.76A6.91,6.91,0,0,0,64,180Z" transform="translate(-18 -123.53)"/><path class="cls-6" d="M90.46,168.3l-.55-2.81-2,.7-12,4.22a5.13,5.13,0,0,0-.12-.59,11.54,11.54,0,0,0-.53-1.6l13.92-4.94-1-2.67-1.93.53-13.51,3.68,0-.35-1-17.09-2.61-.31v.69l0,15.44a6.44,6.44,0,0,0-1.07-.09c-.21,0-.4,0-.59,0a3.86,3.86,0,0,0-.49.06L67,147.07l-2.58.27,0,.31-1.12,17.12v0h0l-1.51-.42-13.89-3.92-.22.5-.89,2.15,13.92,5.05a9.65,9.65,0,0,0-.7,2.21l-1.36-.5L46,165.3l-.1.51-.45,2.32.14.07,14.51,6.57-8.46,14.87,1,1,1,1,8.12-12.26.51-.76A6.91,6.91,0,0,0,64,180l-8.68,13,1.1.71,1.21.77,9.52-12.33.73-1,9.43,12.3.85,1.11,2.31-1.43-8.58-13.07a5.46,5.46,0,0,0,.68-.47,6.58,6.58,0,0,0,1-.93l7.63,11.68.92,1.43v0l2-2-8.31-15Zm-22.77,6.26a1.09,1.09,0,0,1-.26-.05l-.15,0a.48.48,0,0,1-.21-.09h0a1.83,1.83,0,0,1-.62-.45.64.64,0,0,1-.1-.13,1.11,1.11,0,0,1-.19-.23.87.87,0,0,1-.08-.14.46.46,0,0,1-.07-.16,1.3,1.3,0,0,1-.14-.32,1.71,1.71,0,0,1-.1-.46,2.58,2.58,0,0,1,0-.4,2.53,2.53,0,0,1,.11-.73,2.35,2.35,0,0,1,.17-.44,2,2,0,0,1,.14-.26l.18-.24a2.28,2.28,0,0,1,.22-.22,1.93,1.93,0,0,1,.55-.36h0a2.06,2.06,0,0,1,.87-.19,2.37,2.37,0,0,1,2.23,2.48,2.47,2.47,0,0,1,0,.39c0,.12-.05.23-.07.34a2.24,2.24,0,0,1-.14.36,1,1,0,0,1-.13.25.56.56,0,0,1-.1.15.75.75,0,0,1-.13.18,1.52,1.52,0,0,1-.31.31,1,1,0,0,1-.23.17l-.14.08a2.36,2.36,0,0,1-.28.12,1.92,1.92,0,0,1-.3.08,2.33,2.33,0,0,1-.37,0h0a.55.55,0,0,1-.18,0Z" transform="translate(-18 -123.53)"/><path class="cls-7" d="M64.47,197.88a21.34,21.34,0,0,1-3.2.24H61.2a21.69,21.69,0,0,1-11.07-3.07L48,193.65a18,18,0,0,1-1.52-1.22h0l-.23-.22-1.71-1.74a27.11,27.11,0,0,1-7-18.46,26.27,26.27,0,0,1,.37-4.36,19.41,19.41,0,0,1,.55-2.68c.13-.52.3-1.08.47-1.61l.14-.41a17.08,17.08,0,0,1,1.1-2.62,23.76,23.76,0,0,1,17.69-14,16,16,0,0,1,2.42-.22,6.5,6.5,0,0,1,.84-.06h.27a7.92,7.92,0,0,1,1,.06,19.16,19.16,0,0,1,2,.18h0a23.78,23.78,0,0,0-2.66,1.36h-.39c-.35,0-.67,0-1,0a14.7,14.7,0,0,0-2.31.22,22.3,22.3,0,0,0-16.53,13.12,17.46,17.46,0,0,0-1,2.37c-.2.64-.42,1.29-.59,2a17.83,17.83,0,0,0-.51,2.52,25.23,25.23,0,0,0-.35,4.11,25.54,25.54,0,0,0,6.55,17.37l.08.08,1.59,1.62.07,0a12.55,12.55,0,0,0,1.48,1.2L51,193.68a20.13,20.13,0,0,0,10.25,2.84h.6l0,0A24.64,24.64,0,0,0,64.47,197.88Z" transform="translate(-18 -123.53)"/><path class="cls-5" d="M62.37,196.49c-.38,0-.77,0-1.15,0a22.69,22.69,0,0,1-2.88-.21A20.26,20.26,0,0,1,51,193.68l-2.05-1.37a14.59,14.59,0,0,1-1.5-1.2l0,0-1.6-1.62-.08-.08A25.64,25.64,0,0,1,39.12,172a26.39,26.39,0,0,1,.35-4.11,23.38,23.38,0,0,1,.51-2.52c.17-.67.4-1.32.6-2a15.23,15.23,0,0,1,1-2.37A22.33,22.33,0,0,1,58.1,147.94l.13,0a14.36,14.36,0,0,1,2.18-.2c.32,0,.64,0,1,0s.6,0,.93,0h0a5.44,5.44,0,0,0-.66.28,24.62,24.62,0,0,0-12.14,12.34,17.21,17.21,0,0,0-1.05,2.52c-.22.68-.45,1.39-.64,2.09a24.43,24.43,0,0,0-.54,2.68A27.51,27.51,0,0,0,47,172a27.21,27.21,0,0,0,7,18.52l.07.08,1.7,1.72.07,0a14.27,14.27,0,0,0,1.59,1.27l2.18,1.46a23.88,23.88,0,0,0,2.13,1.11Z" transform="translate(-18 -123.53)"/><path class="cls-8" d="M69.15,165.64A1.2,1.2,0,1,1,68,164.33,1.25,1.25,0,0,1,69.15,165.64Z" transform="translate(-18 -123.53)"/><path class="cls-8" d="M63.69,170.07a1.2,1.2,0,1,1-1.19-1.31A1.25,1.25,0,0,1,63.69,170.07Z" transform="translate(-18 -123.53)"/><path class="cls-8" d="M65.75,177.17a1.2,1.2,0,1,1-1.19-1.31A1.25,1.25,0,0,1,65.75,177.17Z" transform="translate(-18 -123.53)"/><path class="cls-8" d="M72.56,177.17a1.2,1.2,0,1,1-1.19-1.31A1.25,1.25,0,0,1,72.56,177.17Z" transform="translate(-18 -123.53)"/><path class="cls-8" d="M74.64,170.07a1.2,1.2,0,1,1-1.19-1.31A1.25,1.25,0,0,1,74.64,170.07Z" transform="translate(-18 -123.53)"/><path class="cls-8" d="M68,168.49a3.17,3.17,0,0,0-2.6,1.41h0a3.89,3.89,0,0,0-.69,2.24,4,4,0,0,0,.59,2.07h0a3.21,3.21,0,0,0,2.7,1.55,3.65,3.65,0,0,0,0-7.27Zm2.22,4a3.4,3.4,0,0,1-.07.34,2.67,2.67,0,0,1-.14.36,1.49,1.49,0,0,1-.13.25.49.49,0,0,1-.1.15.75.75,0,0,1-.13.18,1.52,1.52,0,0,1-.31.31,1.24,1.24,0,0,1-.23.17l-.14.08a2.36,2.36,0,0,1-.28.12,1.67,1.67,0,0,1-.3.08,2.33,2.33,0,0,1-.37,0h0a.55.55,0,0,1-.18,0h-.09a1.09,1.09,0,0,1-.26-.05.44.44,0,0,1-.15,0,.48.48,0,0,1-.21-.09h0a1.83,1.83,0,0,1-.62-.45.41.41,0,0,1-.1-.13,1.11,1.11,0,0,1-.19-.23.87.87,0,0,1-.08-.14.46.46,0,0,1-.07-.16,1.15,1.15,0,0,1-.14-.32,1.71,1.71,0,0,1-.1-.46,2.58,2.58,0,0,1,0-.4,2.53,2.53,0,0,1,.11-.73,1.92,1.92,0,0,1,.17-.44,1.26,1.26,0,0,1,.14-.26l.18-.24.22-.22a1.93,1.93,0,0,1,.55-.36h0a2.06,2.06,0,0,1,.87-.19,2.37,2.37,0,0,1,2.23,2.48A2.47,2.47,0,0,1,70.18,172.51Z" transform="translate(-18 -123.53)"/><path class="cls-3" d="M70.21,172.12a2.47,2.47,0,0,1,0,.39c0,.12-.05.23-.07.34a2.24,2.24,0,0,1-.14.36,1,1,0,0,1-.13.25.56.56,0,0,1-.1.15.75.75,0,0,1-.13.18,1.52,1.52,0,0,1-.31.31,1,1,0,0,1-.23.17l-.14.08a2.36,2.36,0,0,1-.28.12,1.92,1.92,0,0,1-.3.08,2.33,2.33,0,0,1-.37,0h0a.55.55,0,0,1-.18,0h-.09a1.09,1.09,0,0,1-.26-.05l-.15,0a.48.48,0,0,1-.21-.09,2.44,2.44,0,0,0,1.45-2.28,2.41,2.41,0,0,0-1.41-2.26,2.06,2.06,0,0,1,.87-.19A2.37,2.37,0,0,1,70.21,172.12Z" transform="translate(-18 -123.53)"/><path class="cls-6" d="M95.53,167.63a16.28,16.28,0,0,0-.59-2.87,13.81,13.81,0,0,0-.67-2.31,22.14,22.14,0,0,0-1-2.64c-3.67-8.1-10.7-13.74-18.83-15.11a23.92,23.92,0,0,0-2.61-.26,9.17,9.17,0,0,0-1.12-.06h-.29a7.54,7.54,0,0,0-.9.06,15.77,15.77,0,0,0-2.58.25,22.26,22.26,0,0,0-2.55.55,23,23,0,0,0-3,1.08h0a24.67,24.67,0,0,0-2.66,1.36l-.38.23a26.12,26.12,0,0,0-10.17,11.63,18.9,18.9,0,0,0-1.17,2.79l-.15.45c-.18.56-.36,1.15-.51,1.71a21.4,21.4,0,0,0-.57,2.85,29.26,29.26,0,0,0,7,24.31l1.82,1.85.26.24h0a17,17,0,0,0,1.62,1.29l1.9,1.26.31.2,0,0a23.86,23.86,0,0,0,2.62,1.33,22.58,22.58,0,0,0,9.17,1.94h.07a23.23,23.23,0,0,0,11.61-3.11,17.17,17.17,0,0,0,2.37-1.51c.67-.48,1.28-1,1.76-1.38l0,0,1.94-1.92a28.79,28.79,0,0,0,7.6-19.66A30,30,0,0,0,95.53,167.63Zm-8.48,23.06-1.86,1.84c-.52.44-1.06.88-1.63,1.28a15.63,15.63,0,0,1-2.17,1.39,21.53,21.53,0,0,1-10.9,2.92,20.36,20.36,0,0,1-3.14-.24,21.31,21.31,0,0,1-3-.68h0a19.36,19.36,0,0,1-2-.7l-.68-.29a23.88,23.88,0,0,1-2.13-1.11l-2.18-1.46a14.27,14.27,0,0,1-1.59-1.27l-.07,0L54,190.6l-.07-.08A27.21,27.21,0,0,1,47,172a27.51,27.51,0,0,1,.37-4.37,24.43,24.43,0,0,1,.54-2.68c.19-.7.42-1.41.64-2.09a17.21,17.21,0,0,1,1.05-2.52A24.62,24.62,0,0,1,61.7,148a5.44,5.44,0,0,1,.66-.28,19.42,19.42,0,0,1,2-.71h0a24.05,24.05,0,0,1,2.82-.65l.23,0a16.36,16.36,0,0,1,2.23-.19,7.21,7.21,0,0,1,1.06-.06,6.61,6.61,0,0,1,1,.06,19.29,19.29,0,0,1,2.48.25c7.69,1.29,14.18,6.71,17.54,14.12a19.82,19.82,0,0,1,1,2.53,12.52,12.52,0,0,1,.61,2.09,16.36,16.36,0,0,1,.55,2.7,28.66,28.66,0,0,1,.34,4.38A27.23,27.23,0,0,1,87.05,190.69Z" transform="translate(-18 -123.53)"/><path class="cls-5" d="M89.91,165.49l-2,.7-12,4.22a5.13,5.13,0,0,0-.12-.59l12-4.23Z" transform="translate(-18 -123.53)"/><polygon class="cls-5" points="70.2 37.08 68.27 37.61 54.76 41.3 54.73 40.94 68.14 37.3 70.2 37.08"/><path class="cls-5" d="M82.13,191.77l-1.92-.43h0l-7.66-11.75a6.58,6.58,0,0,0,1-.93l7.63,11.68Z" transform="translate(-18 -123.53)"/><polygon class="cls-5" points="60.13 71.03 58.28 70.55 49.12 58.59 49.85 57.63 59.28 69.92 60.13 71.03"/><path class="cls-9" d="M84.53,195.2,59.34,220.39A48.76,48.76,0,0,1,18.55,179.6L45.1,153.06a25.3,25.3,0,0,0-5,7.26,17.08,17.08,0,0,0-1.1,2.62l-.13.41c-.17.53-.34,1.09-.48,1.61a21.1,21.1,0,0,0-.54,2.68,26.27,26.27,0,0,0-.37,4.36,27.06,27.06,0,0,0,7,18.46l1.71,1.74.24.22h0c.47.41,1,.82,1.52,1.22l2.12,1.4a21.66,21.66,0,0,0,11.07,3.07h.65a24.23,24.23,0,0,0,2.48.86,23.35,23.35,0,0,0,6.15.85h.06a23.2,23.2,0,0,0,11.61-3.11A17.85,17.85,0,0,0,84.53,195.2Z" transform="translate(-18 -123.53)"/><path class="cls-10" d="M62.4,179.8l-7.69,11.5-.53-.54,7.56-11.41A5.5,5.5,0,0,0,62.4,179.8Z" transform="translate(-18 -123.53)"/><path class="cls-10" d="M58.64,174.68l-7.19,12.63c-.14-.21-.28-.42-.41-.64s-.27-.44-.4-.67-.13-.22-.19-.34c-.16-.28-.31-.56-.46-.85s-.27-.54-.4-.82a.38.38,0,0,1-.06-.13c-.12-.24-.23-.49-.33-.74a23.43,23.43,0,0,1-.87-2.29c-.07-.21-.13-.41-.19-.62l-.18-.63c-.07-.23-.13-.45-.18-.68s-.16-.64-.22-1-.09-.43-.13-.65a2,2,0,0,1,0-.24c-.06-.27-.1-.54-.14-.81l-.06-.49c0-.23-.06-.47-.09-.7v0c0-.24-.05-.48-.06-.73a.88.88,0,0,1,0-.16c0-.29,0-.57,0-.86s0-.83,0-1.25,0-.9,0-1.34c0-.09,0-.18,0-.26,0-.32.05-.64.08-1Z" transform="translate(-18 -123.53)"/><path class="cls-10" d="M59.13,168.21a8.7,8.7,0,0,0-.57,1.65l-10.92-4c0-.16.07-.32.11-.47l.12-.47c.06-.25.14-.5.21-.75Z" transform="translate(-18 -123.53)"/><path class="cls-10" d="M68.52,172.09a2.46,2.46,0,0,1-1.45,2.28h0a1.87,1.87,0,0,1-.63-.45.64.64,0,0,1-.1-.13,1.08,1.08,0,0,1-.18-.23.47.47,0,0,1-.08-.14.48.48,0,0,1-.08-.16,1.53,1.53,0,0,1-.13-.32,2.21,2.21,0,0,1-.11-.46,2.6,2.6,0,0,1,0-.4,2.61,2.61,0,0,1,.27-1.17,2,2,0,0,1,.15-.26,1.37,1.37,0,0,1,.18-.24,2.28,2.28,0,0,1,.22-.22,1.93,1.93,0,0,1,.55-.36h0A2.4,2.4,0,0,1,68.52,172.09Z" transform="translate(-18 -123.53)"/><path class="cls-10" d="M67.41,149.2l0,13.94a3.5,3.5,0,0,0-.48.06l0-14.16Z" transform="translate(-18 -123.53)"/><path class="cls-10" d="M82.71,167.4l-6.85,2.42a10.37,10.37,0,0,0-.54-1.6l7-2.48C82.47,166.28,82.6,166.84,82.71,167.4Z" transform="translate(-18 -123.53)"/><path class="cls-10" d="M77.7,187.52c-.17.21-.35.43-.53.63l-5.31-8.09a6.32,6.32,0,0,0,.68-.47Z" transform="translate(-18 -123.53)"/><path class="cls-10" d="M74,191.16a24.19,24.19,0,0,1-4.24,2.74,5.12,5.12,0,0,1-.52.27l-.31.15A20.47,20.47,0,0,1,66,195.47c-.47.15-1,.27-1.43.37l-.5.11a.71.71,0,0,1-.2,0,18,18,0,0,1-1.92.34l-.3-.13a22.59,22.59,0,0,1-2.13-1.11L57.94,194l9.17-11.89Z" transform="translate(-18 -123.53)"/><path class="cls-10" d="M83.17,172.13a24.16,24.16,0,0,1-2.7,11.15l-4.69-8.49,7.38-3.27C83.17,171.72,83.17,171.93,83.17,172.13Z" transform="translate(-18 -123.53)"/><path class="cls-10" d="M62.78,148.06l-1.07,16.31-12.41-3.5c.08-.18.17-.35.26-.53A24.58,24.58,0,0,1,61.7,148l.15-.07C62.16,148,62.47,148,62.78,148.06Z" transform="translate(-18 -123.53)"/><path class="cls-10" d="M81.06,162.21l-8.33,2.26L72,151.6A24.42,24.42,0,0,1,81.06,162.21Z" transform="translate(-18 -123.53)"/></g></g></svg>